<svg width="32" height="32" viewBox="0 0 32 32" fill="none" xmlns="http://www.w3.org/2000/svg">
<path d="M23.9999 24C24.5303 24 25.039 23.7893 25.4141 23.4142C25.7892 23.0391 25.9999 22.5304 25.9999 22V17.116C25.9999 16.5856 25.7892 16.0769 25.4141 15.7018C25.039 15.3267 24.5303 15.116 23.9999 15.116H21.2239C21.2239 14.4133 21.2652 13.7107 21.3479 13.008C21.4719 12.264 21.6785 11.6027 21.9679 11.024C22.2572 10.4453 22.6299 9.99 23.0859 9.658C23.5392 9.286 24.1179 9.1 24.8219 9.1V6C23.6645 6 22.6512 6.248 21.7819 6.744C20.9186 7.23375 20.1768 7.91191 19.6119 8.728C19.0431 9.6263 18.6243 10.6112 18.3719 11.644C18.1166 12.7835 17.9918 13.9483 17.9999 15.116V22C17.9999 22.5304 18.2106 23.0391 18.5857 23.4142C18.9607 23.7893 19.4694 24 19.9999 24H23.9999ZM11.9999 24C12.5303 24 13.039 23.7893 13.4141 23.4142C13.7892 23.0391 13.9999 22.5304 13.9999 22V17.116C13.9999 16.5856 13.7892 16.0769 13.4141 15.7018C13.039 15.3267 12.5303 15.116 11.9999 15.116H9.22388C9.22388 14.4133 9.26521 13.7107 9.34788 13.008C9.47321 12.264 9.67988 11.6027 9.96788 11.024C10.2572 10.4453 10.6299 9.99 11.0859 9.658C11.5392 9.286 12.1179 9.1 12.8219 9.1V6C11.6645 6 10.6512 6.248 9.78188 6.744C8.91856 7.23375 8.17682 7.91191 7.61188 8.728C7.0431 9.6263 6.62429 10.6112 6.37188 11.644C6.11664 12.7835 5.99184 13.9483 5.99988 15.116V22C5.99988 22.5304 6.21059 23.0391 6.58566 23.4142C6.96074 23.7893 7.46944 24 7.99988 24H11.9999Z" fill="#0AB7A8"/>
</svg>
