<svg width="128" height="27" viewBox="0 0 128 27" fill="none" xmlns="http://www.w3.org/2000/svg">
<g clip-path="url(#clip0_0_405)">
<path d="M37.2161 20.3749C34.9862 20.3749 33.1406 19.6376 31.68 18.1626C30.2192 16.6878 29.4888 14.8495 29.4888 12.6477C29.4888 10.4459 30.2192 8.60761 31.68 7.13275C33.1406 5.65788 34.9862 4.92043 37.2161 4.92043C38.557 4.92043 39.7988 5.23806 40.942 5.87314C42.0852 6.50826 42.9815 7.36207 43.6306 8.43485L40.3493 10.319C40.0671 9.79678 39.6472 9.38387 39.0898 9.08043C38.5321 8.77707 37.9075 8.62536 37.2161 8.62536C36.0304 8.62536 35.0745 8.99581 34.3475 9.73682C33.6205 10.4777 33.2573 11.448 33.2573 12.6477C33.2573 13.8474 33.6205 14.8176 34.3475 15.5586C35.0745 16.2996 36.0304 16.6701 37.2161 16.6701C37.9075 16.6701 38.5321 16.5183 39.0898 16.2149C39.6472 15.9114 40.0671 15.4916 40.3493 14.9553L43.6306 16.8606C42.9815 17.9474 42.089 18.8048 40.9524 19.4329C39.8165 20.0608 38.5708 20.3749 37.2161 20.3749ZM51.485 9.17573C52.6281 9.17573 53.5632 9.56749 54.2903 10.3506C55.017 11.134 55.3801 12.2596 55.3801 13.7275V20.0574H51.8661V14.1719C51.8661 13.6216 51.7214 13.2052 51.432 12.9229C51.1426 12.6406 50.758 12.4995 50.2784 12.4995C49.7277 12.4995 49.3008 12.6654 48.9975 12.997C48.6939 13.3287 48.5422 13.805 48.5422 14.426V20.0574H45.0279V5.23806H48.5422V10.5307C49.1772 9.62733 50.1583 9.17573 51.485 9.17573ZM60.8 11.441C60.9976 10.7494 61.3927 10.2132 61.9857 9.832C62.5784 9.45096 63.2417 9.26045 63.9757 9.26045V13.1558C63.1711 13.0288 62.4406 13.177 61.7846 13.6004C61.1282 14.0237 60.8 14.7154 60.8 15.6751V20.0574H57.2856V9.47215H60.8V11.441ZM70.1786 20.3537C68.6121 20.3537 67.2782 19.8139 66.1772 18.7342C65.0763 17.6545 64.5258 16.3314 64.5258 14.7648C64.5258 13.1981 65.0763 11.875 66.1772 10.7953C67.2782 9.71563 68.6121 9.17573 70.1786 9.17573C71.7591 9.17573 73.0965 9.71563 74.1905 10.7953C75.2841 11.875 75.8311 13.1981 75.8311 14.7648C75.8311 16.3314 75.2841 17.6545 74.1905 18.7342C73.0965 19.8139 71.7591 20.3537 70.1786 20.3537ZM70.1786 16.9665C70.7994 16.9665 71.3111 16.7618 71.7134 16.3526C72.1157 15.9432 72.3168 15.414 72.3168 14.7648C72.3168 14.1155 72.1157 13.5862 71.7134 13.177C71.3111 12.7677 70.7994 12.563 70.1786 12.563C69.5718 12.563 69.067 12.7677 68.6647 13.177C68.2627 13.5862 68.0613 14.1155 68.0613 14.7648C68.0613 15.414 68.2627 15.9432 68.6647 16.3526C69.067 16.7618 69.5718 16.9665 70.1786 16.9665ZM89.5284 9.17573C90.7564 9.17573 91.7265 9.56749 92.4393 10.3506C93.1521 11.134 93.5084 12.2101 93.5084 13.5792V20.0574H89.9729V13.9814C89.9729 12.9935 89.5353 12.4995 88.6605 12.4995C88.1806 12.4995 87.8171 12.6584 87.5699 12.9759C87.3231 13.2933 87.1995 13.7275 87.1995 14.2778V20.0574H83.6852V13.9814C83.6852 12.9935 83.2406 12.4995 82.3516 12.4995C81.8717 12.4995 81.5082 12.6584 81.2611 12.9759C81.0142 13.2933 80.8906 13.7275 80.8906 14.2778V20.0574H77.3766V9.47215H80.8906V10.4671C81.5401 9.60627 82.4925 9.17573 83.7489 9.17573C84.9627 9.17573 85.8659 9.62733 86.4586 10.5307C87.1926 9.62733 88.2156 9.17573 89.5284 9.17573ZM98.5259 16.0561C98.8787 16.9171 99.6691 17.3475 100.897 17.3475C101.659 17.3475 102.301 17.1005 102.823 16.6066L105.364 18.385C104.319 19.6975 102.802 20.3537 100.812 20.3537C99.02 20.3537 97.5836 19.8281 96.5041 18.7766C95.4243 17.7251 94.8845 16.3949 94.8845 14.7859C94.8845 13.191 95.4139 11.8573 96.4722 10.7847C97.5306 9.71207 98.8787 9.17573 100.516 9.17573C102.097 9.17573 103.402 9.70492 104.432 10.7635C105.463 11.822 105.978 13.1487 105.978 14.7436C105.978 15.2094 105.928 15.6469 105.829 16.0561H98.5259ZM98.4834 13.6216H102.548C102.266 12.6336 101.603 12.1397 100.558 12.1397C99.4714 12.1397 98.7797 12.6336 98.4834 13.6216ZM111.588 16.7972H115.547V20.0574H106.888V17.644L110.635 12.7324H107.1V9.47215H115.335V11.8856L111.588 16.7972ZM124.015 9.47215H127.91L124.29 19.888C123.726 21.4829 122.928 22.6331 121.898 23.3388C120.868 24.0445 119.534 24.3621 117.897 24.2915V20.9889C118.645 20.9889 119.209 20.8972 119.59 20.7137C119.972 20.5303 120.282 20.1985 120.522 19.7187L116.288 9.47215H120.226L122.364 15.6116L124.015 9.47215Z" fill="white"/>
<path fill-rule="evenodd" clip-rule="evenodd" d="M7.28522 10.5555L15.4144 10.58C16.9071 10.9119 15.8708 12.6167 15.5759 13.2337C15.2586 13.8973 14.4624 15.3737 14.3011 15.989C14.7558 16.8751 17.1479 20.1149 17.7067 21.1874L18.9629 18.5656C19.3956 17.6612 19.8041 16.7571 20.2331 15.8562C21.1629 13.9038 22.1222 12.1615 21.291 9.60823C20.6821 7.73767 19.2052 6.2837 17.3605 5.66438C15.6648 5.09503 11.7493 5.37424 9.6889 5.3358L3.94287 5.34911C4.20073 5.9091 6.9085 9.78053 7.28522 10.5555Z" fill="#4380FF"/>
<path fill-rule="evenodd" clip-rule="evenodd" d="M11.8481 21.1775L17.7068 21.1871C17.1481 20.1146 14.7559 16.8748 14.3013 15.9887C13.1234 16.0263 6.8498 16.1419 6.12603 15.9577C5.6461 15.8355 5.24463 15.3098 5.37503 14.719C5.45507 14.3556 6.97392 11.3253 7.28538 10.5552C6.90866 9.78022 4.20089 5.90879 3.94303 5.34881L1.41925 10.6792C0.533291 12.643 -0.532473 14.2853 0.346959 16.9172C0.97048 18.7829 2.37282 20.2291 4.2711 20.8698C5.9031 21.4205 9.87615 21.1356 11.8481 21.1775Z" fill="#11DEFF"/>
<path fill-rule="evenodd" clip-rule="evenodd" d="M17.7069 21.1874L11.8481 21.1778C12.024 21.5551 15.116 26.1734 15.3093 26.3299L17.7069 21.1874Z" fill="#4373FF"/>
<path fill-rule="evenodd" clip-rule="evenodd" d="M3.94336 5.34882L9.68939 5.33551C9.54667 5.01371 9.10775 4.39979 8.87993 4.06188L6.33116 0.296093C6.10208 0.562844 4.14655 4.79488 3.94336 5.34882Z" fill="#07E9FF"/>
</g>
<defs>
<clipPath id="clip0_0_405">
<rect width="128" height="26.4828" fill="white"/>
</clipPath>
</defs>
</svg>
