<svg width="20" height="20" viewBox="0 0 20 20" fill="none" xmlns="http://www.w3.org/2000/svg">
<path d="M6.21904 8.44372C6.21904 8.65712 6.24069 8.83044 6.28185 8.95826C6.32736 9.085 6.38587 9.22365 6.46602 9.37422C6.49159 9.41398 6.50548 9.46015 6.5061 9.50746C6.5061 9.56488 6.47146 9.62339 6.39778 9.68076L6.03383 9.92344C5.99012 9.95496 5.93818 9.97301 5.88435 9.97542C5.82584 9.97542 5.76842 9.94726 5.71101 9.89527C5.63315 9.81148 5.56351 9.72041 5.50303 9.62339C5.43859 9.51223 5.37896 9.39838 5.3243 9.28215C4.87476 9.81403 4.31039 10.0805 3.63013 10.0805C3.14593 10.0805 2.75921 9.94074 2.47757 9.66346C2.19485 9.38613 2.05078 9.01567 2.05078 8.55313C2.05078 8.06135 2.2241 7.66272 2.57507 7.36158C2.92711 7.06044 3.39399 6.91096 3.9876 6.91096C4.18258 6.91096 4.38514 6.92829 4.59854 6.95645C4.81193 6.9857 5.03183 7.03228 5.26147 7.08427V6.66181C5.26147 6.22202 5.1694 5.91547 4.99066 5.73674C4.80652 5.55692 4.49455 5.47026 4.05042 5.47026C3.84894 5.47026 3.64204 5.49409 3.42865 5.54609C3.21663 5.59655 3.00848 5.66207 2.80579 5.74215C2.74035 5.77178 2.67305 5.79711 2.60431 5.81798C2.57453 5.82782 2.54356 5.83365 2.51224 5.83531C2.43099 5.83531 2.39092 5.77681 2.39092 5.65549V5.37169C2.39092 5.27961 2.40175 5.2092 2.43099 5.17021C2.47465 5.11706 2.53035 5.07509 2.59348 5.0478C2.79388 4.94381 3.03652 4.85715 3.31924 4.78783C3.60088 4.712 3.90094 4.67842 4.21832 4.67842C4.904 4.67842 5.40554 4.8344 5.72834 5.14637C6.04574 5.45834 6.20713 5.9328 6.20713 6.56974V8.44372H6.21795H6.21904ZM3.87819 9.32222C4.06775 9.32222 4.26382 9.28756 4.4718 9.21823C4.67869 9.14891 4.86393 9.02109 5.01883 8.84777C5.11171 8.74136 5.1788 8.61495 5.21489 8.47839C5.24955 8.33865 5.27339 8.17183 5.27339 7.97469V7.73204C5.09843 7.68962 4.92122 7.65707 4.7426 7.63455C4.56299 7.61132 4.3821 7.59938 4.20099 7.59881C3.81428 7.59881 3.53155 7.67463 3.34199 7.83062C3.15134 7.9866 3.06035 8.2065 3.06035 8.49572C3.06035 8.76653 3.12859 8.96909 3.27267 9.10883C3.41132 9.2529 3.6128 9.32222 3.87819 9.32222ZM8.50684 9.94726C8.40282 9.94726 8.33349 9.92991 8.28802 9.88875C8.24143 9.85411 8.20135 9.77391 8.16671 9.66346L6.81267 5.19295C6.78597 5.11803 6.76815 5.04022 6.75955 4.96114C6.75955 4.86907 6.80615 4.81707 6.89821 4.81707H7.46367C7.57199 4.81707 7.64784 4.8344 7.68792 4.87448C7.73447 4.90915 7.76916 4.99039 7.8038 5.0998L8.7722 8.92901L9.67127 5.0998C9.69943 4.98497 9.73412 4.90915 9.77963 4.87448C9.8491 4.83191 9.93006 4.81186 10.0114 4.81707H10.4718C10.5823 4.81707 10.6559 4.8344 10.7025 4.87448C10.7491 4.90915 10.7892 4.99039 10.8119 5.0998L11.7229 8.97559L12.7195 5.0998C12.738 5.01593 12.7779 4.93829 12.8354 4.87448C12.9025 4.83195 12.9814 4.81184 13.0607 4.81707H13.5969C13.689 4.81707 13.741 4.86365 13.741 4.96114C13.741 4.99039 13.7345 5.01964 13.7302 5.0543C13.7209 5.10347 13.7071 5.1517 13.689 5.19837L12.2992 9.66885C12.2645 9.78478 12.2245 9.86058 12.179 9.89527C12.1136 9.9371 12.0366 9.95718 11.9591 9.95264H11.464C11.3546 9.95264 11.2799 9.93535 11.2333 9.89527C11.1867 9.85411 11.1467 9.77934 11.1239 9.66346L10.2303 5.93388L9.34201 9.65911C9.31384 9.775 9.27915 9.84976 9.23369 9.88984C9.18709 9.931 9.10585 9.94834 9.00292 9.94834H8.50684V9.94726ZM15.9139 10.1032C15.6148 10.1036 15.3166 10.0687 15.0257 9.99924C14.7376 9.92991 14.5133 9.85411 14.3627 9.76743C14.2707 9.71545 14.2079 9.65803 14.184 9.60496C14.162 9.55396 14.1506 9.49905 14.1504 9.44356V9.14891C14.1504 9.02759 14.196 8.96909 14.2826 8.96909C14.318 8.96917 14.3531 8.97503 14.3866 8.98643C14.4212 8.99834 14.4732 9.02109 14.5306 9.04492C14.7256 9.13158 14.9401 9.2009 15.1644 9.24748C15.3951 9.29298 15.6193 9.31681 15.85 9.31681C16.214 9.31681 16.4956 9.2529 16.6917 9.12616C16.7859 9.06914 16.8632 8.98818 16.916 8.89151C16.9687 8.79485 16.9948 8.68594 16.9917 8.57588C16.9937 8.50157 16.9809 8.42761 16.9541 8.35827C16.9274 8.28892 16.8871 8.22556 16.8357 8.17183C16.7329 8.06135 16.5368 7.96277 16.2541 7.8707L15.4178 7.61072C14.9975 7.47749 14.6856 7.28034 14.496 7.02036C14.3104 6.78015 14.2091 6.48549 14.2079 6.18194C14.2079 5.9393 14.2599 5.72482 14.3627 5.53959C14.4668 5.35544 14.6054 5.19295 14.7787 5.06513C14.952 4.93298 15.147 4.8344 15.3777 4.76508C15.6085 4.69575 15.85 4.6665 16.1035 4.6665C16.2313 4.6665 16.3635 4.67192 16.4902 4.68925C16.6224 4.70658 16.7437 4.73041 16.865 4.75425C16.9798 4.78241 17.0903 4.81057 17.1932 4.84632C17.2972 4.88098 17.3774 4.91565 17.4359 4.95031C17.5039 4.98447 17.5632 5.03375 17.6092 5.09438C17.6462 5.15078 17.6641 5.21765 17.6601 5.28503V5.55692C17.6601 5.67824 17.6146 5.74215 17.528 5.74215C17.4512 5.73339 17.3769 5.70985 17.3091 5.67282C16.9608 5.51838 16.583 5.4415 16.2021 5.44751C15.8739 5.44751 15.6139 5.49951 15.4352 5.61C15.2564 5.71832 15.1644 5.88731 15.1644 6.12453C15.1644 6.28593 15.2217 6.42459 15.3377 6.53508C15.4525 6.64448 15.6659 6.75389 15.9714 6.85246L16.7903 7.11244C17.2051 7.24567 17.5052 7.43091 17.6839 7.66814C17.8626 7.90536 17.9482 8.17725 17.9482 8.47839C17.9482 8.72753 17.8973 8.95176 17.7987 9.14891C17.6967 9.34673 17.5534 9.52036 17.3785 9.65803C17.1997 9.80208 16.9863 9.90718 16.7383 9.9819C16.4783 10.0631 16.2075 10.1032 15.9139 10.1032Z" fill="white"/>
<path fill-rule="evenodd" clip-rule="evenodd" d="M17.0018 12.9129C15.1062 14.3179 12.3504 15.0642 9.9814 15.0642C6.66132 15.0642 3.66945 13.8326 1.40984 11.7853C1.23111 11.6228 1.39251 11.4029 1.60482 11.5307C4.04967 12.953 7.0643 13.8152 10.184 13.8152C12.2865 13.8152 14.5982 13.3754 16.7256 12.4731C17.043 12.3291 17.3138 12.6811 17.0018 12.9129Z" fill="#FF9900"/>
<path fill-rule="evenodd" clip-rule="evenodd" d="M17.7938 12.0105C17.5523 11.6997 16.1917 11.8611 15.5754 11.9358C15.3912 11.9596 15.362 11.7972 15.5288 11.6759C16.612 10.9121 18.3939 11.132 18.6008 11.3866C18.8088 11.6466 18.5434 13.4339 17.5285 14.2896C17.3735 14.4229 17.2241 14.3547 17.2923 14.1813C17.523 13.6072 18.0365 12.3182 17.7938 12.0116V12.0105Z" fill="#FF9900"/>
</svg>
