<svg width="20" height="20" viewBox="0 0 20 20" fill="none" xmlns="http://www.w3.org/2000/svg">
<path d="M9.35064 16.6299C11.5776 16.1771 13.4166 15.8021 13.4378 15.7972L13.4765 15.7878L11.3742 12.9089C10.2177 11.3257 9.272 10.0239 9.272 10.0163C9.272 10.0088 11.4428 3.11956 11.4553 3.09523C11.4597 3.08712 12.9369 6.02337 15.0366 10.2135L18.6384 17.4003L18.6659 17.4552H11.9843H5.30273L9.35064 16.6299Z" fill="#0089D6"/>
<path d="M1.33301 15.7518C1.33301 15.748 2.32361 13.7681 3.53442 11.3521L5.73582 6.95987L8.30404 4.48212C9.7151 3.11911 10.8735 2.00187 10.8778 2C10.8686 2.04133 10.8548 2.0815 10.8367 2.11977L8.04824 8.99784L5.30976 15.7536H3.32045C2.22817 15.7605 1.33301 15.7562 1.33301 15.7518Z" fill="#0089D6"/>
</svg>
