<svg width="63" height="24" viewBox="0 0 63 24" fill="none" xmlns="http://www.w3.org/2000/svg">
<g clip-path="url(#clip0_10_2823)">
<path d="M0.38535 23.806L11.8291 12.0756C11.8643 12.0407 11.8862 11.9945 11.8909 11.9451C11.8956 11.8957 11.8827 11.8462 11.8547 11.8053C11.1588 10.8336 9.87465 10.6653 9.39882 10.0124C7.98919 8.07854 7.63151 6.98397 7.02576 7.05181C6.98351 7.05793 6.94457 7.07838 6.91568 7.10985L2.7818 11.3477C0.403717 13.7837 0.0618397 19.1529 2.97673e-06 23.6493C-0.000227684 23.694 0.0129515 23.7378 0.0378421 23.775C0.0627327 23.8122 0.098194 23.8411 0.139656 23.858C0.181118 23.8749 0.22668 23.8789 0.27047 23.8697C0.314261 23.8604 0.354273 23.8382 0.38535 23.806Z" fill="#017CEE"/>
<path d="M23.8064 23.5163L12.076 12.0718C12.041 12.0364 11.9947 12.0144 11.9452 12.0097C11.8957 12.005 11.8461 12.0179 11.8051 12.0462C10.8336 12.7424 10.6651 14.0262 10.0122 14.502C8.07853 15.9116 6.98408 16.2693 7.0518 16.8751C7.05792 16.9172 7.07849 16.9559 7.10984 16.9847L11.3476 21.1185C13.7835 23.4969 19.1528 23.8387 23.6493 23.9004C23.6938 23.9004 23.7373 23.8872 23.7742 23.8624C23.8112 23.8376 23.8399 23.8023 23.8567 23.7611C23.8736 23.7199 23.8778 23.6746 23.8688 23.6311C23.8599 23.5875 23.8381 23.5475 23.8064 23.5163Z" fill="#00AD46"/>
<path d="M11.3475 21.1198C10.0159 19.8206 9.39875 17.2506 11.951 11.9512C7.80202 13.8054 6.34818 16.2425 7.06316 16.9405L11.3475 21.1198Z" fill="#04D659"/>
<path d="M23.5162 0.096234L12.0728 11.8266C12.0374 11.8614 12.0154 11.9076 12.0107 11.9571C12.006 12.0066 12.0189 12.0561 12.0471 12.097C12.7435 13.0686 14.0269 13.237 14.5031 13.8899C15.9127 15.8237 16.2707 16.9183 16.8761 16.8504C16.9184 16.8445 16.9573 16.8239 16.9861 16.7924L21.12 12.5546C23.4983 10.1186 23.8402 4.7493 23.9019 0.252969C23.9019 0.208241 23.8887 0.164512 23.8637 0.127388C23.8388 0.0902638 23.8033 0.0614352 23.7619 0.044597C23.7204 0.0277587 23.6749 0.0236781 23.6311 0.0328779C23.5874 0.0420777 23.5473 0.0641389 23.5162 0.096234Z" fill="#00C7D4"/>
<path d="M21.1221 12.5546C19.8229 13.8861 17.253 14.5033 11.9531 11.9512C13.8072 16.1001 16.2445 17.5539 16.9423 16.839L21.1221 12.5546Z" fill="#11E1EE"/>
<path d="M0.0952531 0.38572L11.8256 11.8291C11.8605 11.8644 11.9068 11.8863 11.9562 11.891C12.0056 11.8957 12.0552 11.8829 12.0961 11.8548C13.0676 11.1584 13.2361 9.87466 13.8889 9.39882C15.8227 7.98919 16.9173 7.63152 16.8495 7.02576C16.8433 6.98349 16.8228 6.94463 16.7914 6.91568L12.5536 2.7818C10.1176 0.40372 4.74831 0.061842 0.251988 5.28626e-06C0.20715 -0.000302631 0.163252 0.0128478 0.125968 0.0377561C0.0886851 0.0626644 0.0597316 0.098185 0.0428519 0.139725C0.0259723 0.181265 0.0219428 0.226913 0.0312845 0.270767C0.0406263 0.314622 0.0629096 0.354665 0.0952531 0.38572Z" fill="#E43921"/>
<path d="M12.5555 2.78223C13.8871 4.08141 14.5042 6.65137 11.9521 11.9512C16.101 10.0971 17.5548 7.65937 16.8399 6.9619L12.5555 2.78223Z" fill="#FF7557"/>
<path d="M2.78223 11.3478C4.08141 10.0162 6.65137 9.39907 11.9512 11.9511C10.097 7.80233 7.65986 6.3485 6.9619 7.06335L2.78223 11.3478Z" fill="#0CB6FF"/>
<path d="M11.952 12.4609C12.2346 12.4609 12.4636 12.2319 12.4636 11.9493C12.4636 11.6668 12.2346 11.4377 11.952 11.4377C11.6695 11.4377 11.4404 11.6668 11.4404 11.9493C11.4404 12.2319 11.6695 12.4609 11.952 12.4609Z" fill="#4A4848"/>
<path d="M27.0898 7.79669C27.066 7.79608 27.0433 7.78635 27.0265 7.76951C27.0096 7.75268 26.9999 7.73002 26.9992 7.7062C26.9984 7.68942 27 7.67261 27.0038 7.65625L28.1267 4.72739C28.136 4.69683 28.1555 4.67034 28.1818 4.65227C28.2081 4.6342 28.2399 4.62563 28.2717 4.62796H28.5794C28.6449 4.62331 28.7051 4.6647 28.7244 4.72739L29.8424 7.65637L29.8514 7.7062C29.8509 7.73008 29.8412 7.75284 29.8243 7.76972C29.8074 7.78661 29.7847 7.79632 29.7608 7.79682H29.5302C29.5026 7.79853 29.4753 7.79047 29.4531 7.77404C29.4371 7.75882 29.4248 7.7402 29.417 7.71955L29.1682 7.07694H27.6833L27.4345 7.71955C27.4261 7.74103 27.4121 7.75985 27.3939 7.77404C27.3732 7.78989 27.3476 7.79791 27.3216 7.79669H27.0898ZM29.0365 6.68755L28.4255 5.08065L27.8145 6.68755H29.0365ZM30.3853 8.65653C30.371 8.65674 30.3569 8.65405 30.3437 8.64862C30.3305 8.64319 30.3185 8.63513 30.3085 8.62494C30.2993 8.61537 30.2922 8.60403 30.2875 8.59161C30.2828 8.57919 30.2807 8.56595 30.2813 8.55269V5.54829C30.2807 5.53503 30.2828 5.52179 30.2875 5.50937C30.2922 5.49696 30.2993 5.48562 30.3085 5.47604C30.3185 5.46585 30.3305 5.45779 30.3437 5.45236C30.3569 5.44693 30.371 5.44424 30.3853 5.44445H30.5935C30.6499 5.4469 30.6951 5.49196 30.6975 5.54829V5.74727C30.7824 5.632 30.8948 5.53977 31.0244 5.47893C31.1539 5.4181 31.2967 5.39059 31.4396 5.3989C31.5733 5.38911 31.7073 5.41107 31.8309 5.463C31.9545 5.51493 32.064 5.59534 32.1505 5.69767C32.3186 5.91967 32.4093 6.19064 32.4088 6.4691C32.4117 6.50216 32.4132 6.55347 32.4132 6.62302C32.4132 6.69257 32.4117 6.74384 32.4088 6.77682C32.4085 7.05513 32.3178 7.32583 32.1505 7.54825C32.0636 7.65011 31.9541 7.73019 31.8306 7.78207C31.7072 7.83396 31.5733 7.8562 31.4397 7.84702C31.2992 7.85361 31.1592 7.82621 31.0316 7.76714C30.9039 7.70807 30.7924 7.61908 30.7065 7.50772V8.55796C30.7071 8.57122 30.7049 8.58447 30.7003 8.59689C30.6956 8.60931 30.6884 8.62064 30.6792 8.63021C30.6703 8.64065 30.6591 8.64892 30.6465 8.65442C30.6339 8.65991 30.6203 8.66248 30.6066 8.66192L30.3853 8.65653ZM31.3451 7.47514C31.4332 7.48289 31.5219 7.46875 31.6033 7.43397C31.6847 7.39919 31.7562 7.34486 31.8116 7.2758C31.918 7.12149 31.9747 6.93831 31.974 6.75086C31.9769 6.72082 31.9784 6.67714 31.9784 6.61984C31.9784 6.04947 31.767 5.76429 31.3442 5.76429C31.2548 5.75843 31.1653 5.77431 31.0834 5.81059C31.0014 5.84686 30.9295 5.90244 30.8738 5.97257C30.7694 6.11399 30.711 6.28408 30.7065 6.4598L30.7016 6.63196L30.7065 6.80853C30.7096 6.979 30.7702 7.14342 30.8785 7.27506C30.9354 7.34225 31.0071 7.3953 31.088 7.43002C31.1689 7.46474 31.2568 7.48019 31.3447 7.47514H31.3451ZM33.63 7.84053C33.4875 7.84188 33.3467 7.81094 33.2179 7.75004C33.0979 7.6956 32.9936 7.6118 32.9146 7.50637C32.8432 7.40418 32.8053 7.2824 32.8059 7.15776C32.8045 7.06296 32.826 6.96922 32.8684 6.88442C32.9108 6.79962 32.9729 6.72623 33.0495 6.67041C33.2467 6.52869 33.4777 6.44136 33.7193 6.41719L34.3937 6.32216V6.19102C34.3937 5.88327 34.2178 5.72939 33.8659 5.72939C33.7514 5.72467 33.6382 5.75468 33.5411 5.81547C33.4626 5.86379 33.3974 5.93076 33.3511 6.01041C33.3449 6.03307 33.3324 6.05348 33.3149 6.06918C33.3075 6.07574 33.2989 6.08074 33.2896 6.0839C33.2802 6.08705 33.2704 6.0883 33.2605 6.08755H33.0657C33.0524 6.08846 33.0391 6.0865 33.0266 6.08182C33.0141 6.07714 33.0027 6.06983 32.9933 6.0604C32.9839 6.05097 32.9766 6.03963 32.9719 6.02714C32.9672 6.01465 32.9653 6.00131 32.9662 5.988C32.9759 5.89905 33.0104 5.81462 33.0657 5.74433C33.1452 5.6403 33.2494 5.55784 33.3689 5.50445C33.5259 5.43054 33.6981 5.39495 33.8715 5.40061C34.0033 5.38778 34.1364 5.40248 34.2622 5.4438C34.388 5.48511 34.5038 5.55214 34.6023 5.64061C34.7512 5.79979 34.831 6.01139 34.8244 6.22923V7.69616C34.8247 7.71049 34.8221 7.72473 34.8166 7.73799C34.8112 7.75124 34.803 7.76322 34.7927 7.77318C34.7832 7.78237 34.7718 7.78952 34.7594 7.79419C34.747 7.79886 34.7337 7.80097 34.7205 7.80037H34.5123C34.4983 7.80191 34.4841 7.80028 34.4707 7.79561C34.4574 7.79094 34.4453 7.78334 34.4352 7.77337C34.4252 7.7634 34.4176 7.75131 34.4128 7.73799C34.4081 7.72467 34.4064 7.71047 34.4079 7.69641V7.50196C34.3326 7.60565 34.2331 7.68932 34.118 7.74563C33.9654 7.81671 33.7978 7.8497 33.6296 7.84176L33.63 7.84053ZM33.725 7.50123C33.8138 7.50447 33.9023 7.48922 33.985 7.45644C34.0676 7.42366 34.1425 7.37407 34.205 7.31082C34.2718 7.23518 34.323 7.14704 34.3556 7.0515C34.3882 6.95595 34.4016 6.8549 34.3949 6.75416V6.62743L33.87 6.70457C33.6993 6.72032 33.534 6.77283 33.3855 6.85849C33.3371 6.88453 33.2966 6.92302 33.268 6.97C33.2395 7.01697 33.224 7.07071 33.2232 7.12567C33.2213 7.1814 33.2342 7.23664 33.2604 7.28585C33.2866 7.33506 33.3253 7.37652 33.3726 7.40608C33.4782 7.47148 33.6004 7.50494 33.7246 7.50245L33.725 7.50123ZM36.422 7.84053C36.2836 7.84833 36.145 7.82832 36.0144 7.78168C35.8838 7.73503 35.7638 7.66269 35.6616 7.56894C35.4697 7.35843 35.3659 7.0823 35.3717 6.79751L35.3673 6.61653L35.3717 6.43543C35.3659 6.15246 35.4698 5.87821 35.6616 5.67012C35.7631 5.57509 35.8829 5.50162 36.0135 5.45417C36.1442 5.40671 36.2832 5.38624 36.422 5.394C36.6129 5.3883 36.8023 5.42871 36.9743 5.5118C37.1097 5.57691 37.2253 5.67696 37.3092 5.80163C37.38 5.90339 37.422 6.02229 37.4309 6.14596C37.4327 6.15931 37.4312 6.17292 37.4265 6.18554C37.4217 6.19816 37.4139 6.20939 37.4037 6.21821C37.3823 6.23651 37.3548 6.24619 37.3266 6.24539H37.1093C37.0852 6.24714 37.0612 6.24071 37.0411 6.22714C37.0207 6.20692 37.0052 6.18218 36.9961 6.1549C36.9599 6.03103 36.8835 5.92276 36.7789 5.84719C36.6735 5.78049 36.5503 5.74736 36.4257 5.75216C36.343 5.7485 36.2605 5.76233 36.1836 5.79276C36.1066 5.82319 36.037 5.86953 35.9791 5.92874C35.8584 6.0775 35.7956 6.26499 35.8024 6.45649L35.798 6.61898L35.8024 6.77278C35.7946 6.96643 35.8574 7.15632 35.9791 7.30714C36.0373 7.36556 36.1072 7.41108 36.1841 7.44074C36.261 7.4704 36.3434 7.48354 36.4257 7.47931C36.5497 7.48396 36.6724 7.45248 36.7789 7.38869C36.8829 7.31062 36.959 7.20114 36.9961 7.07645C37.0054 7.04925 37.0208 7.02454 37.0411 7.00421C37.0504 6.9961 37.0613 6.98992 37.073 6.98603C37.0847 6.98214 37.097 6.98062 37.1093 6.98155H37.3266C37.3409 6.98129 37.3551 6.98396 37.3684 6.98939C37.3817 6.99482 37.3937 7.0029 37.4037 7.01314C37.4139 7.02196 37.4217 7.03319 37.4265 7.04581C37.4312 7.05843 37.4327 7.07203 37.4309 7.08539C37.421 7.20868 37.379 7.32725 37.3092 7.42935C37.2253 7.55404 37.1096 7.65409 36.9742 7.71918C36.8028 7.80471 36.6131 7.8468 36.4217 7.84176L36.422 7.84053ZM38.0777 7.79523C38.0636 7.79675 38.0494 7.79511 38.0361 7.79042C38.0227 7.78573 38.0106 7.77811 38.0006 7.76813C37.9906 7.75815 37.983 7.74605 37.9782 7.73273C37.9735 7.71941 37.9719 7.7052 37.9733 7.69114V4.68686C37.9727 4.6736 37.9748 4.66037 37.9795 4.64795C37.9842 4.63553 37.9913 4.62419 38.0005 4.61461C38.0105 4.60433 38.0225 4.5962 38.0358 4.59073C38.0491 4.58525 38.0633 4.58255 38.0777 4.58278H38.3038C38.3311 4.5838 38.357 4.59509 38.3764 4.61439C38.3957 4.63368 38.4071 4.65956 38.4082 4.68686V5.74237C38.49 5.63554 38.5953 5.54887 38.7159 5.48902C38.8531 5.42437 39.0037 5.39331 39.1552 5.39841C39.2815 5.39132 39.4078 5.41288 39.5245 5.46148C39.6413 5.51008 39.7456 5.58447 39.8295 5.67906C40.0002 5.88599 40.0871 6.14933 40.0732 6.41719V7.69347C40.0735 7.70783 40.0709 7.7221 40.0654 7.73537C40.0599 7.74865 40.0517 7.76065 40.0414 7.77061C40.0318 7.7798 40.0205 7.78695 40.008 7.79162C39.9956 7.79629 39.9824 7.79839 39.9691 7.7978H39.7431C39.7291 7.79926 39.7149 7.79757 39.7016 7.79287C39.6884 7.78816 39.6763 7.78055 39.6664 7.77058C39.6564 7.76062 39.6488 7.74856 39.6441 7.73529C39.6394 7.72201 39.6377 7.70785 39.6391 7.69384V6.43788C39.6504 6.2579 39.5939 6.08022 39.4808 5.93976C39.424 5.87921 39.3545 5.83198 39.2773 5.80143C39.2001 5.77088 39.1171 5.75778 39.0342 5.76306C38.9496 5.75925 38.865 5.77344 38.7862 5.80467C38.7074 5.83591 38.6361 5.88349 38.577 5.94429C38.459 6.08057 38.399 6.25757 38.4098 6.43751V7.69102C38.4101 7.70536 38.4075 7.71962 38.402 7.73289C38.3966 7.74617 38.3885 7.75818 38.3782 7.76816C38.3686 7.77735 38.3572 7.7845 38.3448 7.78917C38.3324 7.79384 38.3192 7.79595 38.3059 7.79535L38.0777 7.79523ZM41.6691 7.84053C41.5318 7.84698 41.3946 7.82508 41.2661 7.77621C41.1376 7.72733 41.0205 7.65253 40.9222 7.55645C40.7284 7.33963 40.6206 7.0595 40.6189 6.76874L40.6143 6.61494L40.6189 6.46555C40.6246 6.17743 40.7338 5.901 40.9266 5.68678C41.1346 5.49551 41.4086 5.39202 41.6911 5.39793C41.9737 5.40384 42.2431 5.51869 42.443 5.71849C42.6377 5.96148 42.736 6.26776 42.719 6.5787V6.65584C42.7193 6.67012 42.7166 6.6843 42.7112 6.69751C42.7057 6.71072 42.6976 6.72267 42.6874 6.73261C42.6778 6.7418 42.6665 6.74895 42.6541 6.75362C42.6416 6.75829 42.6284 6.7604 42.6151 6.7598H41.0488V6.80045C41.0527 6.9825 41.1146 7.15856 41.2253 7.3031C41.2778 7.36863 41.3447 7.42107 41.4209 7.45628C41.497 7.49149 41.5803 7.50852 41.6642 7.506C41.7827 7.51108 41.9003 7.48296 42.0036 7.42482C42.081 7.37955 42.1487 7.31956 42.203 7.24825C42.2186 7.22376 42.2386 7.20233 42.2619 7.18494C42.2861 7.1741 42.3126 7.16947 42.339 7.17147H42.5611C42.5856 7.17074 42.6098 7.17882 42.6289 7.19425C42.6472 7.20992 42.6574 7.23343 42.656 7.25755C42.6435 7.34998 42.5986 7.43499 42.5294 7.49755C42.4317 7.60247 42.3128 7.68551 42.1807 7.74123C42.0192 7.81071 41.8448 7.84498 41.6691 7.84176V7.84053ZM42.2891 6.44645V6.43298C42.2973 6.24835 42.2358 6.06738 42.1169 5.92592C42.0594 5.86312 41.9894 5.81298 41.9115 5.77867C41.8336 5.74436 41.7494 5.72665 41.6642 5.72665C41.5791 5.72665 41.4948 5.74436 41.4169 5.77867C41.339 5.81298 41.269 5.86312 41.2115 5.92592C41.0983 6.07001 41.0407 6.24996 41.0491 6.43298V6.44645H42.2891Z" fill="white"/>
<path d="M29.0353 6.68759V6.72249C29.0409 6.72246 29.0464 6.72108 29.0514 6.71847C29.0564 6.71585 29.0606 6.71207 29.0638 6.70746C29.067 6.70285 29.0691 6.69753 29.0698 6.69196C29.0705 6.68639 29.0698 6.68073 29.0679 6.67547L29.0353 6.68759ZM28.4243 5.08069L28.4569 5.06844C28.4543 5.06194 28.4498 5.05636 28.444 5.05243C28.4382 5.04849 28.4314 5.04639 28.4244 5.04639C28.4174 5.04639 28.4106 5.04849 28.4048 5.05243C28.399 5.05636 28.3945 5.06194 28.392 5.06844L28.4243 5.08069ZM27.8133 6.68759L27.7808 6.67534C27.7788 6.6806 27.7782 6.68626 27.7789 6.69184C27.7795 6.69742 27.7816 6.70275 27.7847 6.70738C27.7879 6.712 27.7922 6.71579 27.7972 6.71843C27.8021 6.72106 27.8076 6.72245 27.8133 6.72249V6.68759ZM27.089 7.76183C27.0814 7.76217 27.0738 7.76081 27.0668 7.75787C27.0598 7.75493 27.0535 7.75047 27.0484 7.74481L26.9989 7.79391C27.0103 7.80574 27.024 7.81515 27.0391 7.82156C27.0543 7.82798 27.0706 7.83128 27.087 7.83126L27.089 7.76183ZM27.0484 7.74481C27.0428 7.73968 27.0384 7.73339 27.0354 7.72637C27.0325 7.71935 27.0311 7.71177 27.0313 7.70416H26.962C26.962 7.72061 26.9653 7.7369 26.9717 7.75204C26.9781 7.76719 26.9875 7.78089 26.9993 7.79232L27.0484 7.74481ZM27.0313 7.70416C27.0305 7.69058 27.0315 7.67696 27.0342 7.66363L26.9681 7.64159C26.9629 7.66159 26.9607 7.68191 26.9615 7.70257L27.0313 7.70416ZM27.0334 7.66681L28.156 4.73795L28.0911 4.71322L26.9685 7.6422L27.0334 7.66681ZM28.1564 4.73722C28.1635 4.71408 28.1777 4.69377 28.197 4.67918C28.2181 4.66589 28.2428 4.65935 28.2677 4.66044V4.59065C28.2287 4.58946 28.1903 4.60022 28.1576 4.62151C28.126 4.64421 28.1024 4.67637 28.0902 4.71334L28.1564 4.73722ZM28.2684 4.66044H28.5761V4.59065H28.2684V4.66044ZM28.5761 4.66044C28.6012 4.65928 28.6259 4.66581 28.6471 4.67918C28.6665 4.69377 28.6807 4.71408 28.6878 4.73722L28.7532 4.71322C28.741 4.67625 28.7174 4.64409 28.6858 4.62138C28.653 4.60007 28.6145 4.58934 28.5754 4.59065L28.5761 4.66044ZM28.6887 4.73759L29.8067 7.66645L29.8716 7.64171L28.7537 4.71273L28.6887 4.73759ZM29.8051 7.66081L29.8141 7.71065L29.8827 7.69816L29.8737 7.6482L29.8051 7.66081ZM29.8137 7.70416C29.814 7.71177 29.8126 7.71935 29.8096 7.72637C29.8066 7.73339 29.8022 7.73968 29.7966 7.74481L29.8457 7.79391C29.8575 7.78248 29.8669 7.76878 29.8733 7.75363C29.8797 7.73849 29.883 7.7222 29.883 7.70575L29.8137 7.70416ZM29.7966 7.74481C29.7915 7.75042 29.7852 7.75486 29.7782 7.75782C29.7712 7.76078 29.7636 7.76219 29.756 7.76196V7.83126C29.7892 7.83126 29.8211 7.81779 29.8442 7.79391L29.7966 7.74481ZM29.756 7.76196H29.5253V7.83126H29.756V7.76196ZM29.5253 7.76196C29.5059 7.76361 29.4866 7.75841 29.4706 7.74726L29.4259 7.80089C29.4544 7.82257 29.4896 7.83347 29.5253 7.83163V7.76196ZM29.4731 7.74922C29.4607 7.73801 29.4511 7.72416 29.4449 7.70869L29.3793 7.73061C29.3886 7.75632 29.4039 7.77959 29.424 7.79845L29.4731 7.74922ZM29.4447 7.70869L29.1957 7.06559L29.1308 7.09069L29.3796 7.73355L29.4447 7.70869ZM29.1633 7.04367H27.6786V7.1131H29.1633V7.04367ZM27.6461 7.06596L27.3968 7.70906L27.4617 7.73428L27.7107 7.09155L27.6461 7.06596ZM27.3963 7.71028C27.39 7.72626 27.3795 7.74029 27.366 7.75093L27.411 7.80359C27.434 7.78547 27.4517 7.76134 27.4621 7.73379L27.3963 7.71028ZM27.3663 7.75093C27.3519 7.76181 27.334 7.767 27.316 7.76551V7.83493C27.3503 7.83616 27.3837 7.82526 27.4105 7.80408L27.3663 7.75093ZM27.316 7.76551H27.0849V7.83493H27.316V7.76551ZM29.0642 6.67865L28.4532 5.07175L28.3883 5.09649L28.9993 6.70338L29.0642 6.67865ZM28.3878 5.07175L27.7768 6.67865L27.8417 6.70338L28.4527 5.09649L28.3878 5.07175ZM27.8092 6.72616H29.0313V6.65673H27.8092V6.72616ZM30.6927 5.74975H30.6578C30.6577 5.7571 30.6601 5.76426 30.6644 5.77021C30.6687 5.77617 30.6747 5.78062 30.6817 5.78293C30.6887 5.78523 30.6962 5.78528 30.7032 5.78306C30.7102 5.78084 30.7163 5.77647 30.7207 5.77057L30.6927 5.74975ZM30.7016 7.50971L30.7291 7.48865C30.7247 7.48293 30.7186 7.47874 30.7116 7.47665C30.7047 7.47456 30.6973 7.47468 30.6904 7.477C30.6836 7.47931 30.6776 7.48371 30.6733 7.48957C30.6691 7.49543 30.6668 7.50247 30.6667 7.50971H30.7016ZM30.3792 8.62742C30.3694 8.6277 30.3597 8.62592 30.3507 8.62221C30.3417 8.61849 30.3335 8.61293 30.3268 8.60587L30.2778 8.6551C30.3046 8.68191 30.3412 8.69661 30.3792 8.69563V8.62742ZM30.3268 8.60587C30.3208 8.5995 30.3162 8.59198 30.3133 8.58376C30.3104 8.57555 30.3092 8.56682 30.3098 8.55812H30.24C30.2386 8.59412 30.2522 8.62914 30.2773 8.6551L30.3268 8.60587ZM30.3098 8.55812V5.55359H30.24V8.55812H30.3098ZM30.3098 5.55359C30.3092 5.54484 30.3104 5.53618 30.3133 5.52792C30.3163 5.51966 30.3209 5.5121 30.3269 5.50571L30.2777 5.45673C30.2652 5.46949 30.2554 5.48468 30.249 5.50136C30.2425 5.51804 30.2396 5.53585 30.2403 5.55371L30.3098 5.55359ZM30.3269 5.50571C30.3336 5.49869 30.3418 5.49316 30.3508 5.48947C30.3598 5.48578 30.3695 5.48401 30.3792 5.48428V5.41449C30.3412 5.41351 30.3045 5.4282 30.2777 5.45489L30.3269 5.50571ZM30.3792 5.48428H30.5875V5.41449H30.3792V5.48428ZM30.5875 5.48428C30.5961 5.48369 30.6048 5.48514 30.6128 5.48852C30.6207 5.49191 30.6278 5.49712 30.6334 5.50375L30.686 5.45869C30.6739 5.44443 30.6587 5.43309 30.6416 5.4255C30.6244 5.41791 30.6058 5.41427 30.5871 5.41485L30.5875 5.48428ZM30.6374 5.50779C30.6509 5.51918 30.658 5.5362 30.657 5.55371H30.7263C30.7269 5.53503 30.7232 5.51646 30.7156 5.49938C30.708 5.4823 30.6967 5.46714 30.6825 5.45502L30.6374 5.50779ZM30.657 5.55371V5.75257H30.7263V5.55371H30.657ZM30.7198 5.77326C30.8016 5.66243 30.9097 5.5738 31.0344 5.51546C31.1592 5.45711 31.2965 5.4309 31.434 5.43922V5.36979C31.2853 5.36126 31.1369 5.38999 31.0022 5.45337C30.8675 5.51675 30.7507 5.61278 30.6625 5.73273L30.7198 5.77326ZM31.434 5.43922C31.5622 5.42924 31.691 5.44979 31.8097 5.49917C31.9285 5.54854 32.0339 5.62535 32.1172 5.7233L32.1721 5.68032C32.0823 5.5739 31.9686 5.4902 31.8404 5.43602C31.7121 5.38185 31.5729 5.35873 31.434 5.36857V5.43922ZM32.1172 5.7233C32.2804 5.93892 32.3684 6.20206 32.3678 6.47245L32.4372 6.46963C32.4373 6.18432 32.3441 5.9068 32.1717 5.67947L32.1172 5.7233ZM32.3678 6.4744C32.3706 6.50612 32.3723 6.55559 32.3723 6.62551H32.4417C32.4417 6.55608 32.4417 6.50367 32.4368 6.4684L32.3678 6.4744ZM32.3723 6.62551C32.3723 6.69493 32.3723 6.74489 32.3678 6.77649L32.4368 6.78261C32.44 6.74771 32.4417 6.69493 32.4417 6.62551H32.3723ZM32.3678 6.77808C32.3676 7.04845 32.2797 7.31145 32.1172 7.52759L32.1717 7.57069C32.3432 7.34299 32.4363 7.06592 32.4372 6.78089L32.3678 6.77808ZM32.1172 7.52722C32.0335 7.62471 31.928 7.7012 31.8094 7.75053C31.6907 7.79987 31.5621 7.82069 31.434 7.8113V7.88085C31.5727 7.88983 31.7116 7.86631 31.8397 7.81217C31.9678 7.75803 32.0815 7.67476 32.1717 7.56898L32.1172 7.52722ZM31.434 7.8113C31.2988 7.81804 31.1641 7.79203 31.0411 7.73549C30.9182 7.67896 30.8107 7.59356 30.7279 7.48657L30.6728 7.52722C30.7619 7.64288 30.8776 7.73536 31.01 7.79683C31.1424 7.8583 31.2877 7.88696 31.4336 7.88036L31.434 7.8113ZM30.6658 7.50689V8.55726H30.7356V7.50689H30.6658ZM30.6658 8.55726C30.6664 8.56597 30.6652 8.5747 30.6622 8.58292C30.6593 8.59114 30.6547 8.59866 30.6487 8.60502L30.6979 8.65424C30.7231 8.6284 30.7366 8.59326 30.7353 8.55726H30.6658ZM30.6471 8.6071C30.6414 8.61371 30.6343 8.61892 30.6263 8.62231C30.6183 8.62571 30.6096 8.62721 30.6009 8.62669V8.69649C30.6389 8.69771 30.6753 8.68155 30.7 8.65265L30.6471 8.6071ZM30.6009 8.62669H30.3793V8.69649H30.6009V8.62669ZM31.3386 7.51461C31.4322 7.52236 31.5263 7.50694 31.6125 7.46969C31.6987 7.43244 31.7745 7.37453 31.833 7.30106L31.7771 7.2604C31.7249 7.32493 31.6576 7.37556 31.5812 7.4078C31.5048 7.44003 31.4215 7.45288 31.3389 7.44518L31.3386 7.51461ZM31.8327 7.30155C31.9435 7.14162 32.0029 6.95163 32.0029 6.75702L31.9333 6.7542C31.934 6.93479 31.8794 7.11127 31.7771 7.26004L31.8327 7.30155ZM32.0024 6.7591C32.0056 6.72693 32.0073 6.682 32.0073 6.62428H31.9375C31.9375 6.6811 31.9375 6.72371 31.9329 6.75212L32.0024 6.7591ZM32.0073 6.62428C32.0234 6.39152 31.9655 6.15963 31.842 5.96171C31.7832 5.88531 31.7066 5.82453 31.6188 5.78472C31.531 5.74492 31.4348 5.72732 31.3386 5.73347V5.80289C31.5115 5.79065 31.679 5.86571 31.7851 6.00273C31.8997 6.18873 31.9528 6.40605 31.937 6.62391L32.0073 6.62428ZM31.3386 5.73395C31.2437 5.72798 31.1488 5.74505 31.062 5.78371C30.9752 5.82237 30.899 5.88147 30.84 5.95595L30.8952 5.99661C30.9478 5.93075 31.0156 5.87864 31.0927 5.84477C31.1699 5.8109 31.2541 5.79628 31.3382 5.80216L31.3386 5.73395ZM30.84 5.95595C30.731 6.10347 30.6701 6.28093 30.6655 6.46424L30.7353 6.46755C30.7395 6.29795 30.7962 6.13385 30.8976 5.99783L30.84 5.95595ZM30.6655 6.4651L30.6609 6.63726H30.7304L30.7349 6.4651H30.6655ZM30.6609 6.63898L30.6655 6.81542H30.7353L30.7309 6.63885L30.6609 6.63898ZM30.6655 6.81591C30.669 6.99392 30.7323 7.16556 30.8453 7.30314L30.8992 7.25881C30.7963 7.13252 30.7391 6.97515 30.7369 6.81224L30.6655 6.81591ZM30.8453 7.30314C30.9055 7.37412 30.9814 7.43019 31.0669 7.46694C31.1524 7.5037 31.2453 7.52014 31.3382 7.51498V7.44555C31.2555 7.45069 31.1728 7.43653 31.0965 7.40419C31.0203 7.37184 30.9526 7.3222 30.8989 7.25918L30.8453 7.30314ZM34.3973 7.50518H34.4322C34.4321 7.49786 34.4296 7.49079 34.4251 7.48496C34.4207 7.47914 34.4146 7.47485 34.4076 7.47271C34.4006 7.47057 34.3931 7.47069 34.3861 7.47304C34.3792 7.4754 34.3732 7.47987 34.3689 7.48583L34.3973 7.50518ZM34.388 6.63518H34.4229C34.4229 6.63011 34.4218 6.6251 34.4197 6.62051C34.4176 6.61591 34.4145 6.61183 34.4106 6.60855C34.4067 6.60528 34.4022 6.60289 34.3973 6.60154C34.3924 6.6002 34.3873 6.59994 34.3823 6.60077L34.388 6.63518ZM33.6231 7.81338C33.4858 7.81474 33.35 7.78488 33.226 7.72608L33.196 7.78902C33.3295 7.85208 33.4752 7.88416 33.6227 7.88281L33.6231 7.81338ZM33.226 7.72608C33.1112 7.67362 33.0114 7.59321 32.9358 7.4922L32.8797 7.53285C32.962 7.64318 33.0708 7.73102 33.196 7.78828L33.226 7.72608ZM32.9365 7.49342C32.8691 7.3971 32.8332 7.28223 32.8338 7.16465H32.764C32.7633 7.29631 32.8034 7.42495 32.8789 7.53285L32.9365 7.49342ZM32.8338 7.16465C32.8324 7.07485 32.8526 6.98603 32.8929 6.90573C32.9331 6.82543 32.9921 6.75602 33.0649 6.70338L33.0222 6.64865C32.941 6.70777 32.8752 6.78553 32.8303 6.87539C32.7855 6.96525 32.7628 7.06458 32.7644 7.16502L32.8338 7.16465ZM33.0649 6.70302C33.2572 6.56486 33.4825 6.47984 33.7181 6.45653L33.7083 6.38759C33.4605 6.41244 33.2237 6.50233 33.0219 6.64816L33.0649 6.70302ZM33.7181 6.45653L34.3924 6.36163L34.3827 6.29257L33.708 6.38759L33.7181 6.45653ZM34.4226 6.3271V6.19595H34.3531V6.32698L34.4226 6.3271ZM34.4226 6.19595C34.4274 6.12712 34.417 6.05806 34.392 5.99372C34.3671 5.92937 34.3283 5.87132 34.2783 5.82371C34.1579 5.73291 34.0087 5.68876 33.8582 5.69942V5.76922C33.9918 5.75854 34.1247 5.79646 34.2325 5.876C34.2752 5.91702 34.3083 5.96699 34.3293 6.02231C34.3503 6.07764 34.3589 6.13694 34.3542 6.19595H34.4226ZM33.8582 5.69942C33.7364 5.69456 33.6159 5.72666 33.5128 5.79151L33.5532 5.84918C33.6448 5.79175 33.7517 5.76345 33.8598 5.768L33.8582 5.69942ZM33.5135 5.79126C33.4296 5.84221 33.3598 5.91335 33.3105 5.9982L33.3713 6.03236C33.4151 5.95779 33.4765 5.89513 33.5501 5.84991L33.5135 5.79126ZM33.3105 6.00396C33.3061 6.0202 33.2974 6.03494 33.2853 6.04657L33.3287 6.10093C33.3514 6.08098 33.3679 6.05489 33.3762 6.02587L33.3105 6.00396ZM33.2829 6.04926C33.2745 6.05566 33.2638 6.05848 33.2533 6.0571V6.12653C33.2677 6.12728 33.282 6.12516 33.2955 6.12028C33.3091 6.1154 33.3215 6.10787 33.332 6.09812L33.2829 6.04926ZM33.2533 6.0571H33.0584V6.12653H33.2533V6.0571ZM33.0584 6.0571C33.0401 6.05724 33.0224 6.05056 33.0088 6.03836L32.9635 6.09114C32.9897 6.11416 33.0235 6.12665 33.0584 6.12653V6.0571ZM33.0124 6.04204C33.0001 6.02836 32.9933 6.01052 32.9935 5.99208H32.924C32.9238 6.0271 32.9363 6.06089 32.9593 6.0871L33.0124 6.04204ZM32.9935 5.99379C33.0029 5.91119 33.0352 5.83287 33.0868 5.76763L33.03 5.72698C32.9704 5.80286 32.9337 5.89413 32.924 5.99012L32.9935 5.99379ZM33.0868 5.768C33.1628 5.66856 33.2626 5.58982 33.377 5.53902L33.3466 5.47657C33.2218 5.5325 33.1129 5.61874 33.03 5.72746L33.0868 5.768ZM33.3775 5.53902C33.5296 5.46743 33.6966 5.43305 33.8647 5.43873V5.3693C33.6857 5.36359 33.508 5.40062 33.3462 5.4773L33.3775 5.53902ZM33.8647 5.43873C33.9913 5.42617 34.1192 5.44 34.2403 5.47935C34.3613 5.51869 34.4729 5.58271 34.5679 5.66734L34.619 5.6202C34.5175 5.52843 34.398 5.45875 34.2682 5.41556C34.1383 5.37237 34.0009 5.35662 33.8647 5.3693V5.43873ZM34.5683 5.66771C34.711 5.82044 34.7874 6.02352 34.7806 6.23244H34.85C34.8567 6.00583 34.7735 5.78578 34.6186 5.6202L34.5683 5.66771ZM34.7806 6.23244V7.69938H34.85V6.23244H34.7806ZM34.7806 7.69938C34.7809 7.70912 34.7791 7.7188 34.7754 7.72781C34.7717 7.73681 34.7661 7.74494 34.7591 7.75167L34.8082 7.80089C34.8214 7.78757 34.8319 7.77169 34.8389 7.75423C34.8459 7.73676 34.8492 7.71807 34.8488 7.69926L34.7806 7.69938ZM34.7591 7.75167C34.7527 7.75766 34.7451 7.76228 34.7369 7.76523C34.7287 7.76818 34.7199 7.7694 34.7112 7.76881V7.83824C34.7473 7.83947 34.7822 7.826 34.8082 7.80089L34.7591 7.75167ZM34.7112 7.76881H34.5029V7.83824H34.7111L34.7112 7.76881ZM34.5029 7.76881C34.4831 7.76944 34.4637 7.76278 34.4485 7.75008L34.4035 7.80285C34.4311 7.82649 34.4665 7.83922 34.5029 7.83861V7.76881ZM34.4526 7.75375C34.4395 7.73871 34.4327 7.71927 34.4335 7.69938H34.364C34.3633 7.73575 34.3758 7.77114 34.3994 7.79881L34.4526 7.75375ZM34.4335 7.69938V7.50481H34.364V7.69938H34.4335ZM34.3702 7.48498C34.2983 7.58436 34.203 7.66452 34.0928 7.71836L34.1249 7.78008C34.245 7.72093 34.3489 7.63328 34.4273 7.52477L34.3702 7.48498ZM34.0928 7.71836C33.9468 7.78753 33.7862 7.82042 33.6247 7.81424V7.88367C33.7974 7.88979 33.9691 7.85426 34.1253 7.78008L34.0928 7.71836ZM33.7197 7.54424C33.8132 7.54758 33.9064 7.53148 33.9933 7.49696C34.0803 7.46243 34.1591 7.41023 34.2248 7.34367L34.1749 7.29493C34.1156 7.35484 34.0446 7.40175 33.9662 7.43265C33.8878 7.46356 33.8039 7.4778 33.7197 7.47445V7.54424ZM34.2248 7.34367C34.2948 7.26477 34.3484 7.17282 34.3827 7.07311C34.417 6.97339 34.4312 6.86788 34.4245 6.76265H34.3551C34.3617 6.85894 34.3492 6.95558 34.3182 7.047C34.2873 7.13842 34.2386 7.22281 34.1749 7.2953L34.2248 7.34367ZM34.4245 6.76265V6.63604H34.3551V6.76265H34.4245ZM34.384 6.60028L33.8589 6.67706L33.8691 6.74612L34.394 6.66934L34.384 6.60028ZM33.8589 6.67706C33.6832 6.6935 33.5131 6.74794 33.3604 6.83661L33.399 6.89465C33.5432 6.81188 33.7036 6.76133 33.8692 6.74649L33.8589 6.67706ZM33.3608 6.83624C33.3074 6.86531 33.2626 6.90807 33.2312 6.96015C33.1997 7.01222 33.1827 7.07173 33.1818 7.13257H33.2516C33.2525 7.08338 33.2666 7.03534 33.2925 6.99348C33.3183 6.95162 33.3549 6.91748 33.3985 6.89465L33.3608 6.83624ZM33.1818 7.13257C33.1799 7.19402 33.1941 7.25489 33.2231 7.30914C33.252 7.3634 33.2946 7.40916 33.3466 7.44187L33.3852 7.38432C33.3426 7.35789 33.3078 7.32068 33.2843 7.27647C33.2608 7.23226 33.2494 7.18261 33.2512 7.13257H33.1818ZM33.3475 7.44273C33.4591 7.5113 33.5883 7.5462 33.7193 7.54314V7.47359C33.6016 7.47663 33.4855 7.44545 33.3852 7.38383L33.3475 7.44273ZM36.4168 7.8064C36.2828 7.81429 36.1486 7.79523 36.022 7.75035C35.8955 7.70547 35.7793 7.63567 35.6802 7.5451L35.6315 7.59457C35.7369 7.69161 35.8606 7.76655 35.9954 7.81494C36.1302 7.86334 36.2734 7.88421 36.4164 7.87632L36.4168 7.8064ZM35.6807 7.54547C35.4954 7.34153 35.3953 7.07437 35.4009 6.79889L35.3315 6.80134C35.3265 7.09408 35.4337 7.37764 35.6311 7.59383L35.6807 7.54547ZM35.4009 6.79926L35.3965 6.61816H35.3271L35.3315 6.79926H35.4009ZM35.3965 6.61975L35.4009 6.43877H35.3315L35.3271 6.61975H35.3965ZM35.4009 6.43914C35.3948 6.165 35.4951 5.89913 35.6807 5.69734L35.6311 5.64824C35.4332 5.86248 35.3258 6.14503 35.3315 6.43669L35.4009 6.43914ZM35.6807 5.69734C35.779 5.60544 35.8949 5.53449 36.0214 5.48879C36.1479 5.44309 36.2824 5.4236 36.4167 5.43151V5.36208C36.2732 5.35425 36.1297 5.37557 35.9948 5.42476C35.8598 5.47394 35.7363 5.54997 35.6315 5.64824L35.6807 5.69734ZM36.4167 5.43151C36.6019 5.42567 36.7858 5.46466 36.9527 5.54514L36.9847 5.48342C36.8079 5.39756 36.6129 5.35576 36.4164 5.36159L36.4167 5.43151ZM36.9527 5.54514C37.0827 5.60726 37.1936 5.70297 37.2742 5.82236L37.3331 5.78551C37.246 5.65553 37.1257 5.55123 36.9847 5.48342L36.9527 5.54514ZM37.2746 5.82322C37.3418 5.91922 37.3819 6.03138 37.3911 6.14808L37.4605 6.1444C37.451 6.01468 37.4069 5.88988 37.3327 5.78306L37.2746 5.82322ZM37.3911 6.15163C37.3922 6.15911 37.3914 6.16675 37.3888 6.17386C37.3862 6.18096 37.3818 6.18729 37.3762 6.19228L37.4216 6.24506C37.4365 6.23283 37.448 6.21702 37.4551 6.19912C37.4622 6.18121 37.4647 6.1618 37.4622 6.14269L37.3911 6.15163ZM37.3762 6.19228C37.3609 6.20501 37.3415 6.21168 37.3217 6.21102V6.28032C37.3583 6.28106 37.3938 6.26832 37.4216 6.24469L37.3762 6.19228ZM37.3217 6.21102H37.1046V6.28032H37.3217V6.21102ZM37.1046 6.21102C37.0884 6.21269 37.0721 6.20894 37.0583 6.20036L37.0148 6.25485C37.0409 6.27347 37.0725 6.28265 37.1046 6.28081V6.21102ZM37.0583 6.20036C37.0425 6.18365 37.0306 6.16372 37.0233 6.14196L36.9592 6.16877C36.9706 6.20147 36.9896 6.23098 37.0148 6.25485L37.0583 6.20036ZM37.0241 6.14355C36.9852 6.01259 36.9038 5.89833 36.7927 5.81881L36.755 5.87722C36.8531 5.94865 36.9245 6.05078 36.958 6.16742L37.0241 6.14355ZM36.7935 5.81881C36.6824 5.74805 36.5524 5.71278 36.4208 5.71767V5.7871C36.5385 5.78235 36.6548 5.81334 36.7545 5.876L36.7935 5.81881ZM36.4208 5.71767C36.3332 5.71393 36.2457 5.7287 36.1641 5.76102C36.0826 5.79335 36.0087 5.84249 35.9474 5.90526L35.9978 5.95314C36.0525 5.89716 36.1186 5.85345 36.1915 5.82489C36.2644 5.79633 36.3426 5.78357 36.4208 5.78747V5.71767ZM35.9474 5.90526C35.8204 6.06066 35.7543 6.25695 35.7614 6.45751L35.8309 6.45983C35.8233 6.27618 35.8826 6.09601 35.9978 5.95277L35.9474 5.90526ZM35.7614 6.45775L35.757 6.62024H35.8264L35.8309 6.45775H35.7614ZM35.757 6.62269L35.7614 6.77649L35.8309 6.77453L35.8264 6.62061L35.757 6.62269ZM35.7614 6.77698C35.7538 6.97891 35.8199 7.17671 35.9474 7.33351L35.9978 7.28563C35.8821 7.14087 35.8228 6.95913 35.8309 6.77404L35.7614 6.77698ZM35.9474 7.33351C36.009 7.3956 36.083 7.44402 36.1646 7.47558C36.2462 7.50715 36.3335 7.52115 36.4208 7.51669V7.44689C36.3428 7.4512 36.2648 7.43894 36.1919 7.41094C36.119 7.38293 36.0528 7.33981 35.9978 7.2844L35.9474 7.33351ZM36.4208 7.51669C36.5515 7.52139 36.6807 7.48795 36.7927 7.42044L36.755 7.36191C36.6542 7.42202 36.5381 7.4515 36.4208 7.44677V7.51669ZM36.7935 7.41996C36.9038 7.3377 36.9847 7.22211 37.0241 7.09032L36.9584 7.06718C36.924 7.18475 36.8529 7.28819 36.7553 7.36228L36.7935 7.41996ZM37.0233 7.0924C37.0306 7.07061 37.0425 7.05065 37.0583 7.03387L37.0148 6.97951C36.9897 7.00354 36.9707 7.03316 36.9592 7.06596L37.0233 7.0924ZM37.0611 7.03118C37.0671 7.02629 37.0741 7.02264 37.0816 7.02046C37.089 7.01827 37.0968 7.01759 37.1046 7.01845V6.94902C37.0877 6.94803 37.0708 6.95044 37.0549 6.9561C37.039 6.96176 37.0244 6.97055 37.012 6.98196L37.0611 7.03118ZM37.1046 7.01845H37.3217V6.94902H37.1046V7.01845ZM37.3217 7.01845C37.3314 7.01817 37.3411 7.01995 37.3502 7.02366C37.3592 7.02737 37.3673 7.03294 37.3741 7.04L37.4232 6.99089C37.4099 6.97763 37.394 6.9672 37.3766 6.96021C37.3591 6.95323 37.3405 6.94984 37.3217 6.95024V7.01845ZM37.3762 7.04171C37.3818 7.04668 37.3861 7.05297 37.3887 7.06002C37.3913 7.06708 37.3922 7.07467 37.3911 7.08212L37.4602 7.0891C37.4626 7.07001 37.4601 7.05062 37.453 7.03274C37.4459 7.01486 37.4344 6.99907 37.4195 6.98685L37.3762 7.04171ZM37.3911 7.08579C37.3814 7.20325 37.3411 7.31611 37.2742 7.4131L37.3327 7.45045C37.4059 7.34331 37.45 7.21894 37.4605 7.08959L37.3911 7.08579ZM37.2742 7.4131C37.1936 7.53254 37.0827 7.62829 36.9527 7.69045L36.9847 7.75216C37.1257 7.6843 37.2459 7.58001 37.3331 7.45008L37.2742 7.4131ZM36.9522 7.69081C36.7855 7.77172 36.6016 7.81073 36.4164 7.80445V7.87387C36.6129 7.88048 36.8081 7.83868 36.9847 7.75216L36.9522 7.69081ZM38.4025 5.73836H38.368C38.3681 5.74556 38.3704 5.75255 38.3746 5.7584C38.3788 5.76424 38.3847 5.76864 38.3915 5.771C38.3982 5.77336 38.4056 5.77356 38.4125 5.77158C38.4194 5.76959 38.4256 5.76552 38.4301 5.75991L38.4025 5.73836ZM38.0724 7.76024C38.0526 7.76087 38.0333 7.75421 38.018 7.74151L37.9725 7.79428C38.0002 7.81804 38.0356 7.83077 38.072 7.83004L38.0724 7.76024ZM38.0221 7.74518C38.0094 7.72997 38.0027 7.71062 38.0033 7.69081H37.9335C37.9328 7.72718 37.9453 7.76257 37.9689 7.79024L38.0221 7.74518ZM38.0033 7.69081V4.6864H37.9335V7.69081H38.0033ZM38.0033 4.6864C38.0028 4.67769 38.004 4.66896 38.007 4.66075C38.0099 4.65253 38.0145 4.64501 38.0205 4.63865L37.9713 4.58942C37.9588 4.60223 37.9491 4.61742 37.9427 4.63409C37.9362 4.65076 37.9333 4.66855 37.9339 4.6864H38.0033ZM38.0205 4.63865C38.0272 4.63159 38.0353 4.62601 38.0443 4.62227C38.0533 4.61854 38.063 4.61674 38.0728 4.61698V4.54755C38.054 4.54714 38.0353 4.55053 38.0179 4.55752C38.0004 4.56451 37.9846 4.57494 37.9713 4.5882L38.0205 4.63865ZM38.0728 4.61698H38.2989V4.54755H38.0728V4.61698ZM38.2989 4.61698C38.3076 4.6164 38.3163 4.61787 38.3242 4.62127C38.3322 4.62468 38.3393 4.62992 38.3449 4.63657L38.3975 4.59102C38.3854 4.57676 38.3702 4.56541 38.353 4.55783C38.3359 4.55024 38.3173 4.5466 38.2986 4.54718L38.2989 4.61698ZM38.3485 4.64024C38.3551 4.64581 38.3603 4.65286 38.3637 4.66082C38.3671 4.66877 38.3686 4.67741 38.368 4.68604H38.4378C38.4383 4.66735 38.4347 4.64879 38.4271 4.63171C38.4195 4.61463 38.4082 4.59947 38.394 4.58734L38.3485 4.64024ZM38.368 4.68604V5.74155H38.4378V4.68604H38.368ZM38.4301 5.76236C38.5087 5.65958 38.6098 5.57621 38.7257 5.51869L38.6952 5.45624C38.5697 5.51836 38.4602 5.60853 38.3752 5.71975L38.4301 5.76236ZM38.7264 5.51869C38.8587 5.45641 39.0039 5.42661 39.15 5.43175V5.36244C38.9929 5.35738 38.8369 5.38969 38.6948 5.45673L38.7264 5.51869ZM39.15 5.43175C39.2715 5.42442 39.3931 5.44477 39.5056 5.49126C39.6181 5.53776 39.7186 5.60918 39.7996 5.70016L39.8522 5.65485C39.7649 5.55646 39.6565 5.47904 39.5352 5.42834C39.4138 5.37765 39.2825 5.355 39.1512 5.36208L39.15 5.43175ZM39.7996 5.70114C39.9648 5.90154 40.049 6.1566 40.0354 6.416H40.1048C40.1184 6.13961 40.0281 5.86815 39.8515 5.6551L39.7996 5.70114ZM40.0354 6.416V7.69228H40.1048V6.416H40.0354ZM40.0354 7.69228C40.0357 7.70204 40.0339 7.71187 40.0302 7.72089C40.0265 7.72992 40.0209 7.73807 40.0138 7.74481L40.0631 7.79391C40.0898 7.76698 40.1043 7.73036 40.1036 7.6924L40.0354 7.69228ZM40.0138 7.74481C40.0075 7.75079 40 7.7554 39.9917 7.75835C39.9835 7.7613 39.9748 7.76252 39.9661 7.76196V7.83126C40.0021 7.83249 40.0371 7.81902 40.0631 7.79391L40.0138 7.74481ZM39.9661 7.76196H39.7398V7.83126H39.966L39.9661 7.76196ZM39.7398 7.76196C39.72 7.76259 39.7006 7.75592 39.6854 7.74322L39.64 7.79587C39.6677 7.81963 39.7031 7.83236 39.7394 7.83163L39.7398 7.76196ZM39.6896 7.74689C39.6769 7.73165 39.6702 7.71225 39.6709 7.6924H39.6011C39.6003 7.72877 39.6128 7.76417 39.6363 7.79196L39.6896 7.74689ZM39.6709 7.6924V6.43755H39.6011V7.69106L39.6709 7.6924ZM39.6709 6.43877C39.6824 6.25016 39.6227 6.06409 39.5036 5.91738L39.4515 5.96367C39.559 6.09759 39.6123 6.26695 39.6009 6.43828L39.6709 6.43877ZM39.504 5.91787C39.4437 5.85335 39.3699 5.80298 39.2878 5.7704C39.2057 5.73781 39.1175 5.72382 39.0293 5.72942V5.79885C39.1075 5.7933 39.1859 5.8052 39.2588 5.83371C39.3318 5.86222 39.3975 5.90661 39.4512 5.96367L39.504 5.91787ZM39.0293 5.72942C38.94 5.72575 38.8508 5.74096 38.7677 5.77404C38.6846 5.80712 38.6094 5.85734 38.547 5.92142L38.5973 5.96942C38.6533 5.91223 38.7207 5.86751 38.7952 5.83818C38.8696 5.80885 38.9494 5.79557 39.0293 5.79922V5.72942ZM38.547 5.92142C38.4224 6.06411 38.3588 6.25003 38.37 6.43914H38.4398C38.4288 6.26803 38.4856 6.09948 38.5977 5.96979L38.547 5.92142ZM38.37 6.43914V7.69289H38.4398V6.43755L38.37 6.43914ZM38.37 7.69289C38.3702 7.70262 38.3685 7.7123 38.3648 7.7213C38.3611 7.73031 38.3555 7.73844 38.3485 7.74518L38.3975 7.79428C38.4108 7.78098 38.4212 7.76515 38.4282 7.74773C38.4352 7.73031 38.4385 7.71166 38.4382 7.69289H38.37ZM38.3485 7.74518C38.3421 7.75119 38.3346 7.75581 38.3263 7.75876C38.3181 7.76171 38.3093 7.76292 38.3005 7.76232V7.83163C38.3367 7.83285 38.3717 7.81938 38.3976 7.79428L38.3485 7.74518ZM38.3005 7.76232H38.0745V7.83163H38.3005V7.76232ZM41.6647 7.80738C41.5319 7.81367 41.3992 7.79251 41.2749 7.74521C41.1506 7.69791 41.0374 7.62549 40.9424 7.53249L40.8929 7.58122C40.9943 7.68077 41.1152 7.75839 41.2479 7.80924C41.3806 7.8601 41.5223 7.8831 41.6643 7.87681L41.6647 7.80738ZM40.9427 7.53285C40.7549 7.32189 40.6504 7.04966 40.6489 6.76718L40.5794 6.77085C40.5818 7.06989 40.6931 7.35782 40.8924 7.58073L40.9427 7.53285ZM40.6492 6.76804L40.6448 6.61412H40.5754L40.5798 6.76804H40.6492ZM40.6448 6.6162L40.6492 6.46681L40.5794 6.46473L40.575 6.61412L40.6448 6.6162ZM40.6492 6.46804C40.6546 6.1881 40.7605 5.91944 40.9476 5.71118L40.8974 5.6633C40.6991 5.88339 40.5864 6.16734 40.5798 6.46351L40.6492 6.46804ZM40.9473 5.71118C41.0401 5.6176 41.1515 5.54446 41.2743 5.49642C41.397 5.44839 41.5285 5.42653 41.6602 5.43224V5.36281C41.5191 5.35717 41.3784 5.38098 41.2471 5.43272C41.1157 5.48445 40.9967 5.56298 40.8974 5.6633L40.9473 5.71118ZM41.6602 5.43224C41.8008 5.42394 41.9414 5.44745 42.0717 5.50103C42.2019 5.5546 42.3184 5.63685 42.4125 5.74167L42.4653 5.69612C42.3647 5.58372 42.2401 5.4954 42.1007 5.4377C41.9613 5.38001 41.8108 5.35441 41.6602 5.36281V5.43224ZM42.4129 5.74167C42.602 5.97825 42.6973 6.27629 42.6804 6.57873H42.7502C42.7675 6.25946 42.6663 5.94504 42.4661 5.69575L42.4129 5.74167ZM42.6804 6.57873V6.65587H42.7502V6.57873H42.6804ZM42.6804 6.65587C42.6807 6.66562 42.6789 6.67532 42.6752 6.68435C42.6716 6.69337 42.666 6.70153 42.659 6.70828L42.708 6.75738C42.7349 6.73045 42.7495 6.69383 42.7486 6.65587H42.6804ZM42.659 6.70828C42.6526 6.71429 42.645 6.71892 42.6368 6.72187C42.6285 6.72482 42.6197 6.72603 42.611 6.72542V6.79473C42.6471 6.79596 42.6821 6.78249 42.7081 6.75738L42.659 6.70828ZM42.611 6.72542H41.0447V6.79473H42.611V6.72542ZM41.0098 6.76032V6.80085H41.0796V6.76032H41.0098ZM41.0098 6.80085C41.0143 6.9901 41.0787 7.17305 41.1938 7.32334L41.2485 7.28036C41.1422 7.14153 41.083 6.97246 41.0793 6.79767L41.0098 6.80085ZM41.1941 7.32371C41.2497 7.39344 41.3208 7.44929 41.4016 7.48686C41.4825 7.52443 41.571 7.54269 41.6602 7.5402V7.47077C41.5814 7.47319 41.5031 7.45721 41.4316 7.4241C41.3601 7.39098 41.2972 7.34164 41.2481 7.28L41.1941 7.32371ZM41.6602 7.5402C41.7853 7.54535 41.9094 7.51523 42.0183 7.45326L41.9817 7.394C41.8839 7.44898 41.7727 7.47545 41.6606 7.4704L41.6602 7.5402ZM42.0183 7.45326C42.0994 7.40551 42.1704 7.34237 42.2273 7.26738L42.1705 7.22673C42.1188 7.29412 42.0546 7.35091 41.9813 7.394L42.0183 7.45326ZM42.2265 7.26812C42.2368 7.25408 42.2478 7.24057 42.2596 7.22759C42.2628 7.224 42.2663 7.2206 42.27 7.21742L42.2733 7.21498L42.2419 7.15289C42.2293 7.16019 42.2179 7.1695 42.2082 7.18044C42.1951 7.19514 42.1826 7.21046 42.1709 7.22636L42.2265 7.26812ZM42.2752 7.21375C42.2941 7.2064 42.3144 7.20359 42.3345 7.20518V7.13587C42.3018 7.13378 42.2691 7.14019 42.2396 7.15449L42.2752 7.21375ZM42.3345 7.20518H42.5566V7.13587H42.3345V7.20518ZM42.5566 7.20518C42.573 7.20437 42.5892 7.20959 42.602 7.21987L42.6467 7.16624C42.6213 7.14552 42.5894 7.13457 42.5566 7.13538V7.20518ZM42.602 7.21987C42.6126 7.22906 42.618 7.24253 42.6167 7.25636H42.6862C42.6867 7.23924 42.6833 7.22222 42.6762 7.2066C42.6692 7.19099 42.6587 7.17718 42.6455 7.16624L42.602 7.21987ZM42.6167 7.25636C42.6035 7.34008 42.5618 7.41665 42.4986 7.4731L42.5505 7.51987C42.6256 7.45097 42.6737 7.35754 42.6862 7.25636H42.6167ZM42.4986 7.47359C42.4042 7.57516 42.2893 7.65555 42.1616 7.70942L42.1909 7.77285C42.3276 7.71473 42.4504 7.62835 42.5513 7.51938L42.4986 7.47359ZM42.162 7.70906C42.0051 7.77627 41.8357 7.80925 41.6651 7.80579V7.8751C41.8456 7.87852 42.0249 7.8435 42.1909 7.77236L42.162 7.70906ZM42.3199 6.446V6.43253H42.2505V6.446H42.3199ZM42.3199 6.43253C42.3283 6.23941 42.2638 6.05019 42.1393 5.90232L42.0869 5.94873C42.1997 6.08399 42.2577 6.2567 42.2493 6.43265L42.3199 6.43253ZM42.1397 5.90477C42.0812 5.83526 42.0076 5.78007 41.9244 5.74341C41.8413 5.70676 41.7509 5.68961 41.6602 5.6933V5.7631C41.7407 5.75965 41.821 5.7747 41.8948 5.80709C41.9686 5.83948 42.034 5.88835 42.086 5.94995L42.1397 5.90477ZM41.6602 5.6933C41.5695 5.68971 41.4792 5.7069 41.3961 5.74358C41.3131 5.78025 41.2396 5.83543 41.1811 5.90489L41.2343 5.94947C41.2863 5.88788 41.3517 5.83903 41.4255 5.80666C41.4994 5.77429 41.5796 5.75927 41.6602 5.76273V5.6933ZM41.1807 5.90489C41.0623 6.05467 41.0015 6.24191 41.0093 6.43265H41.0791C41.0709 6.25766 41.126 6.08556 41.2343 5.94787L41.1807 5.90489ZM41.0093 6.43265V6.44612H41.0791V6.43265H41.0093ZM41.0442 6.48089H42.2847V6.41147H41.0442V6.48089ZM26.1487 18.429C26.0881 18.4275 26.0304 18.4028 25.9875 18.36C25.9446 18.3171 25.9199 18.2594 25.9185 18.1988C25.9165 18.1562 25.9203 18.1136 25.9299 18.0722L28.7824 10.6309C28.806 10.5533 28.8552 10.486 28.9221 10.4401C28.9889 10.3941 29.0694 10.3723 29.1503 10.3781H29.9322C30.0132 10.3723 30.0937 10.3941 30.1606 10.4401C30.2275 10.4861 30.2768 10.5534 30.3004 10.6311L33.1425 18.0722L33.1655 18.1988C33.1639 18.2593 33.1391 18.3169 33.0963 18.3597C33.0534 18.4026 32.9958 18.4273 32.9353 18.429H32.3488C32.2788 18.4334 32.2095 18.413 32.153 18.3714C32.1122 18.333 32.0807 18.2857 32.0611 18.2333L31.4287 16.6H27.6562L27.0237 18.2333C27.0023 18.2878 26.9665 18.3355 26.9201 18.3713C26.8676 18.4117 26.8024 18.4322 26.7362 18.429H26.1487ZM31.0942 15.6114L29.5416 11.5286L27.9895 15.6108L31.0942 15.6114ZM34.4168 11.3331C34.3811 11.3369 34.3451 11.3327 34.3112 11.3208C34.2774 11.3089 34.2466 11.2895 34.2213 11.2642C34.1959 11.2388 34.1765 11.2081 34.1645 11.1743C34.1525 11.1404 34.1483 11.1044 34.1521 11.0687V10.4475C34.1502 10.376 34.1748 10.3063 34.2211 10.2518C34.2464 10.2256 34.2769 10.2049 34.3105 10.1909C34.3442 10.1769 34.3804 10.17 34.4168 10.1706H35.1415C35.1778 10.1705 35.2137 10.1775 35.2473 10.1913C35.2809 10.2051 35.3114 10.2255 35.337 10.2511C35.3627 10.2768 35.383 10.3073 35.3969 10.3408C35.4107 10.3744 35.4177 10.4104 35.4176 10.4466V11.0678C35.4188 11.1413 35.3893 11.2121 35.3364 11.2631C35.2821 11.3095 35.2125 11.3341 35.1411 11.3322L34.4168 11.3331ZM34.509 18.4293C34.4733 18.4331 34.4373 18.4289 34.4034 18.4169C34.3696 18.4049 34.3389 18.3856 34.3135 18.3602C34.2881 18.3348 34.2687 18.3041 34.2568 18.2703C34.2448 18.2365 34.2405 18.2004 34.2443 18.1647V12.7129C34.241 12.6447 34.266 12.5782 34.3133 12.529C34.3387 12.5028 34.3691 12.4821 34.4028 12.4682C34.4364 12.4542 34.4726 12.4473 34.509 12.4478H35.0608C35.1301 12.4505 35.1958 12.4792 35.2448 12.5282C35.2939 12.5772 35.3226 12.6429 35.3254 12.7122V18.1635C35.3266 18.2371 35.2972 18.308 35.2442 18.3592C35.195 18.4064 35.1285 18.4314 35.0603 18.4281L34.509 18.4293ZM37.2945 18.4293C37.2588 18.4331 37.2228 18.4289 37.189 18.4169C37.1552 18.4049 37.1245 18.3855 37.0992 18.3602C37.0738 18.3348 37.0545 18.3041 37.0426 18.2703C37.0306 18.2364 37.0264 18.2004 37.0302 18.1647V12.7243C37.0284 12.653 37.053 12.5834 37.0992 12.529C37.1245 12.5028 37.155 12.482 37.1886 12.4681C37.2223 12.4541 37.2585 12.4472 37.295 12.4478H37.8227C37.859 12.4477 37.895 12.4547 37.9286 12.4685C37.9622 12.4823 37.9927 12.5027 38.0183 12.5283C38.044 12.554 38.0643 12.5845 38.0782 12.6181C38.092 12.6517 38.099 12.6877 38.0989 12.724V13.2298C38.2703 12.9648 38.5109 12.7519 38.7948 12.614C39.0787 12.4762 39.3948 12.4187 39.7091 12.4478H40.1555C40.2247 12.4506 40.2904 12.4793 40.3394 12.5283C40.3884 12.5773 40.4171 12.643 40.4199 12.7122V13.1836C40.4211 13.2184 40.4145 13.253 40.4004 13.2849C40.3863 13.3167 40.3652 13.3449 40.3387 13.3674C40.3143 13.3908 40.2855 13.409 40.2538 13.4209C40.2222 13.4328 40.1885 13.4381 40.1548 13.4365H39.4645C39.285 13.4268 39.1053 13.4545 38.937 13.5179C38.7687 13.5813 38.6155 13.6789 38.4869 13.8047C38.3644 13.935 38.2696 14.0889 38.2083 14.2569C38.1469 14.425 38.1203 14.6037 38.1301 14.7823V18.1635C38.1313 18.2371 38.1019 18.308 38.0489 18.3592C37.9944 18.4055 37.9247 18.43 37.8532 18.4281L37.2945 18.4293ZM42.2615 18.4293C42.2259 18.4331 42.1898 18.4288 42.156 18.4168C42.1223 18.4048 42.0916 18.3854 42.0662 18.3601C42.0409 18.3347 42.0216 18.304 42.0096 18.2702C41.9977 18.2364 41.9934 18.2004 41.9971 18.1647V13.3683H41.0195C40.9839 13.372 40.9479 13.3678 40.9141 13.3558C40.8803 13.3439 40.8496 13.3245 40.8243 13.2992C40.799 13.2738 40.7796 13.2431 40.7677 13.2094C40.7557 13.1756 40.7515 13.1395 40.7553 13.1039V12.7129C40.752 12.6447 40.7769 12.5782 40.8242 12.529C40.8495 12.5028 40.8798 12.4821 40.9134 12.4682C40.947 12.4542 40.9831 12.4473 41.0195 12.4478H41.9971V11.8727C41.9971 10.5692 42.6565 9.91755 43.9752 9.91779H44.619C44.6883 9.92045 44.7541 9.94914 44.8031 9.99815C44.8522 10.0472 44.881 10.1129 44.8838 10.1822V10.5731C44.8843 10.6095 44.8774 10.6456 44.8634 10.6792C44.8494 10.7127 44.8287 10.7431 44.8026 10.7683C44.7533 10.8156 44.6869 10.8406 44.6187 10.8374H43.9978C43.8638 10.8228 43.7283 10.8402 43.6023 10.8882C43.4763 10.9363 43.3635 11.0134 43.2732 11.1135C43.1168 11.3557 43.0441 11.6424 43.0662 11.9299V12.4476H45.5273V10.1828C45.5242 10.1147 45.549 10.0481 45.5963 9.99885C45.6216 9.97268 45.6521 9.95198 45.6857 9.93802C45.7194 9.92406 45.7555 9.91713 45.792 9.91767H46.3197C46.389 9.9203 46.4548 9.94898 46.5039 9.99799C46.553 10.047 46.5818 10.1127 46.5846 10.182V18.1635C46.5858 18.2371 46.5564 18.308 46.5033 18.3592C46.4539 18.4064 46.3873 18.4314 46.319 18.4281H45.7912C45.7555 18.432 45.7194 18.4278 45.6856 18.4158C45.6517 18.4039 45.621 18.3845 45.5956 18.3591C45.5702 18.3338 45.5508 18.303 45.5388 18.2692C45.5269 18.2353 45.5227 18.1992 45.5265 18.1635V13.3683H43.0653V18.1642C43.0659 18.2007 43.059 18.2369 43.045 18.2705C43.031 18.3042 43.0103 18.3346 42.9841 18.3599C42.9347 18.4073 42.8681 18.4322 42.7998 18.429L42.2615 18.4293ZM50.7467 18.5443C50.3876 18.5661 50.0278 18.514 49.6896 18.3913C49.3513 18.2686 49.0418 18.0779 48.7802 17.8309C48.3034 17.3144 48.0403 16.6363 48.044 15.9333L48.0323 15.4388L48.044 14.9443C48.0419 14.243 48.3095 13.5677 48.7915 13.0581C49.9158 12.092 51.5772 12.092 52.7016 13.0581C53.1834 13.5677 53.451 14.243 53.4491 14.9443C53.4566 15.0285 53.4604 15.1933 53.4604 15.4388C53.4604 15.6842 53.4566 15.8491 53.4491 15.9333C53.4524 16.6383 53.1849 17.3176 52.7016 17.8309C52.4423 18.0784 52.1346 18.2695 51.7978 18.3922C51.461 18.5149 51.1025 18.5665 50.7448 18.5438L50.7467 18.5443ZM50.7467 17.6588C50.9583 17.6695 51.1696 17.6339 51.366 17.5545C51.5623 17.475 51.739 17.3537 51.8835 17.1989C52.1912 16.8277 52.3545 16.358 52.3436 15.876C52.3511 15.7995 52.3549 15.654 52.3549 15.4393C52.3549 15.2246 52.3511 15.0789 52.3436 15.0024C52.3545 14.5205 52.1911 14.0508 51.8835 13.6797C51.739 13.5248 51.5623 13.4035 51.366 13.324C51.1696 13.2445 50.9583 13.2089 50.7467 13.2196C50.5332 13.2093 50.32 13.2451 50.1216 13.3245C49.9231 13.4039 49.7441 13.525 49.5966 13.6797C49.2903 14.0508 49.1314 14.5216 49.15 15.0024L49.1386 15.4393L49.15 15.876C49.1314 16.3569 49.2903 16.8277 49.5966 17.1989C49.7439 17.3532 49.9227 17.4741 50.1207 17.5534C50.3188 17.6327 50.5316 17.6685 50.7448 17.6584L50.7467 17.6588ZM56.3313 18.4302C56.2488 18.4356 56.1672 18.4111 56.1014 18.3611C56.0384 18.3006 55.991 18.2256 55.9634 18.1427L54.3301 12.8064L54.3073 12.6915C54.3063 12.6595 54.312 12.6277 54.3238 12.598C54.3357 12.5683 54.3536 12.5413 54.3764 12.5189C54.4235 12.4754 54.4849 12.4509 54.549 12.4499H55.0547C55.0885 12.4483 55.1222 12.4536 55.1538 12.4654C55.1854 12.4773 55.2143 12.4955 55.2386 12.5189C55.2858 12.549 55.3222 12.5934 55.3422 12.6456L56.6191 16.9811L57.9876 12.6915C58.004 12.6277 58.0403 12.5708 58.0912 12.529C58.1202 12.5013 58.1545 12.4798 58.1921 12.4658C58.2296 12.4519 58.2696 12.4458 58.3097 12.4478H58.7006C58.7407 12.4457 58.7808 12.4518 58.8185 12.4658C58.8561 12.4797 58.8905 12.5013 58.9195 12.529C58.9704 12.5707 59.0066 12.6277 59.0229 12.6915L60.3915 16.9811L61.6681 12.6456C61.6824 12.5964 61.7106 12.5525 61.7493 12.5189C61.8038 12.4725 61.8734 12.448 61.9449 12.4499H62.4625C62.524 12.4492 62.5828 12.4743 62.625 12.5189C62.6708 12.5644 62.6958 12.6269 62.694 12.6915L62.6708 12.8064L61.0493 18.1427C61.0217 18.2256 60.9743 18.3006 60.9112 18.3611C60.8408 18.4125 60.7544 18.437 60.6675 18.4302H60.2211C60.1332 18.4393 60.0451 18.4146 59.9746 18.3612C59.9042 18.3079 59.8566 18.2298 59.8415 18.1427L58.5073 14.0256L57.1732 18.1427C57.1523 18.229 57.1016 18.3051 57.0301 18.3577C56.9586 18.4103 56.8708 18.436 56.7822 18.4302H56.3313Z" fill="white"/>
</g>
<defs>
<clipPath id="clip0_10_2823">
<rect width="62.6939" height="24" fill="white"/>
</clipPath>
</defs>
</svg>
