<svg width="20" height="20" viewBox="0 0 20 20" fill="none" xmlns="http://www.w3.org/2000/svg">
<path d="M9.69065 18.9906C9.45839 18.9906 9.22813 18.9299 9.0246 18.8125L6.90442 17.557C6.58756 17.3798 6.74214 17.317 6.84656 17.281C7.26898 17.1334 7.35432 17.0998 7.80508 16.8437C7.85244 16.8165 7.91436 16.8262 7.96291 16.855L9.59189 17.8216C9.65055 17.8536 9.73435 17.8536 9.78856 17.8216L16.1399 14.1553C16.1986 14.1217 16.237 14.0538 16.237 13.9838V6.65492C16.237 6.58169 16.199 6.51651 16.1387 6.48013L9.79016 2.81667C9.73149 2.78187 9.65341 2.78187 9.59474 2.81667L3.24704 6.47973C3.18554 6.51451 3.14629 6.58289 3.14629 6.65287V13.9822C3.14629 14.0522 3.18432 14.1189 3.24502 14.1521L4.98448 15.1568C5.92888 15.629 6.50588 15.0726 6.50588 14.513V7.27962C6.50588 7.17646 6.58676 7.09677 6.69039 7.09677H7.49473C7.5951 7.09677 7.67764 7.17606 7.67764 7.27962V14.5167C7.67764 15.7759 6.99102 16.4993 5.79698 16.4993C5.42957 16.4993 5.14026 16.4993 4.33264 16.102L2.66641 15.1418C2.25451 14.9031 2 14.4576 2 13.9826V6.65327C2 6.17623 2.25451 5.73115 2.66601 5.49566L9.0242 1.82777C9.4264 1.60038 9.9605 1.60038 10.3598 1.82777L16.71 5.49728C17.1195 5.73398 17.3756 6.17785 17.3756 6.65492V13.9842C17.3756 14.4596 17.1195 14.9031 16.7096 15.1418L10.3594 18.8093C10.1559 18.927 9.92531 18.9873 9.6902 18.9873" fill="#21A366"/>
<path d="M11.6536 13.9404C8.87465 13.9404 8.29199 12.6647 8.29199 11.5949C8.29199 11.4933 8.37413 11.4119 8.4761 11.4119H9.29667C9.38727 11.4119 9.46375 11.4779 9.47792 11.5673C9.60176 12.4033 9.97078 12.8249 11.6512 12.8249C12.9896 12.8249 13.559 12.5226 13.559 11.8126C13.559 11.4038 13.3967 11.1004 11.3173 10.8969C9.57789 10.7253 8.50318 10.3422 8.50318 8.95104C8.50318 7.6696 9.58434 6.90649 11.395 6.90649C13.4287 6.90649 14.4365 7.61259 14.5636 9.12909C14.5685 9.1817 14.5495 9.23225 14.5142 9.2707C14.4794 9.30714 14.4301 9.32936 14.3791 9.32936H13.5541C13.4683 9.32936 13.3935 9.2691 13.376 9.18616C13.1774 8.30692 12.6971 8.0257 11.3918 8.0257C9.93068 8.0257 9.76074 8.53427 9.76074 8.91585C9.76074 9.37832 9.96107 9.51347 11.9324 9.77446C13.8847 10.0334 14.8117 10.3992 14.8117 11.7713C14.8117 13.1543 13.6573 13.9477 11.6447 13.9477" fill="#21A366"/>
</svg>
