<svg width="20" height="20" viewBox="0 0 20 20" fill="none" xmlns="http://www.w3.org/2000/svg">
<path fill-rule="evenodd" clip-rule="evenodd" d="M10.293 10.3239C10.293 8.72847 11.5522 7.43506 13.1055 7.43506C14.6587 7.43506 15.918 8.72847 15.918 10.3239C15.918 11.9194 14.6587 13.2128 13.1055 13.2128C11.5522 13.2128 10.293 11.9194 10.293 10.3239Z" fill="#1ABCFE"/>
<path fill-rule="evenodd" clip-rule="evenodd" d="M4.66699 16.1018C4.66699 14.5063 5.92619 13.2129 7.47949 13.2129H10.292V16.1018C10.292 17.6972 9.03277 18.9906 7.47949 18.9906C5.92619 18.9906 4.66699 17.6972 4.66699 16.1018Z" fill="#0ACF83"/>
<path fill-rule="evenodd" clip-rule="evenodd" d="M10.293 1.65723V7.43499H13.1055C14.6587 7.43499 15.918 6.14157 15.918 4.54611C15.918 2.95062 14.6587 1.65723 13.1055 1.65723H10.293Z" fill="#FF7262"/>
<path fill-rule="evenodd" clip-rule="evenodd" d="M4.66699 4.54611C4.66699 6.14157 5.92619 7.43499 7.47949 7.43499H10.292V1.65723H7.47949C5.92619 1.65723 4.66699 2.95062 4.66699 4.54611Z" fill="#F24E1E"/>
<path fill-rule="evenodd" clip-rule="evenodd" d="M4.66699 10.3239C4.66699 11.9194 5.92619 13.2128 7.47949 13.2128H10.292V7.43506H7.47949C5.92619 7.43506 4.66699 8.72847 4.66699 10.3239Z" fill="#A259FF"/>
</svg>
