<svg width="20" height="20" viewBox="0 0 20 20" fill="none" xmlns="http://www.w3.org/2000/svg">
<path d="M9.99991 11.753C10.8919 11.753 11.6151 11.02 11.6151 10.1158C11.6151 9.21176 10.8919 8.47876 9.99991 8.47876C9.10788 8.47876 8.38477 9.21176 8.38477 10.1158C8.38477 11.02 9.10788 11.753 9.99991 11.753Z" fill="#00D8FF"/>
<path d="M9.99966 13.4704C14.7861 13.4704 18.6663 11.9687 18.6663 10.1163C18.6663 8.26392 14.7861 6.76221 9.99966 6.76221C5.21319 6.76221 1.33301 8.26392 1.33301 10.1163C1.33301 11.9687 5.21319 13.4704 9.99966 13.4704Z" stroke="#00D8FF" stroke-width="1.5"/>
<path d="M7.13276 11.793C9.52599 15.9946 12.7491 18.6497 14.3318 17.7235C15.9146 16.7973 15.2575 12.6404 12.8643 8.43891C10.471 4.23729 7.24789 1.58208 5.66519 2.50828C4.08248 3.43449 4.73954 7.59138 7.13276 11.793Z" stroke="#00D8FF" stroke-width="1.5"/>
<path d="M7.13276 8.43887C4.73954 12.6404 4.08248 16.7974 5.66519 17.7236C7.24789 18.6497 10.471 15.9945 12.8643 11.793C15.2575 7.5914 15.9146 3.43449 14.3318 2.50828C12.7491 1.58208 9.52599 4.23729 7.13276 8.43887Z" stroke="#00D8FF" stroke-width="1.5"/>
</svg>
