<svg width="20" height="20" viewBox="0 0 20 20" fill="none" xmlns="http://www.w3.org/2000/svg">
<mask id="mask0_10_3830" style="mask-type:luminance" maskUnits="userSpaceOnUse" x="1" y="1" width="18" height="18">
<path d="M18.6663 1.65723H1.33301V18.9906H18.6663V1.65723Z" fill="white"/>
</mask>
<g mask="url(#mask0_10_3830)">
<path d="M1.33301 7.93022C1.33301 5.73448 1.33301 4.6366 1.76033 3.79793C2.13622 3.06022 2.736 2.46043 3.47371 2.08455C4.31238 1.65723 5.41026 1.65723 7.606 1.65723H12.3933C14.5891 1.65723 15.687 1.65723 16.5256 2.08455C17.2633 2.46043 17.8631 3.06022 18.239 3.79793C18.6663 4.6366 18.6663 5.73448 18.6663 7.93022V12.7176C18.6663 14.9133 18.6663 16.0112 18.239 16.8498C17.8631 17.5876 17.2633 18.1873 16.5256 18.5632C15.687 18.9906 14.5891 18.9906 12.3933 18.9906H7.606C5.41026 18.9906 4.31238 18.9906 3.47371 18.5632C2.736 18.1873 2.13622 17.5876 1.76033 16.8498C1.33301 16.0112 1.33301 14.9133 1.33301 12.7176V7.93022Z" fill="#470137"/>
<path d="M10.4003 6.75423L8.2375 10.4155L10.5514 14.3033C10.5995 14.3915 10.5514 14.411 10.4817 14.411H8.83054C8.71422 14.411 8.63282 14.4068 8.58633 14.3272C8.43113 14.0172 8.27612 13.7091 8.12118 13.4029C7.96604 13.0969 7.80131 12.7849 7.62705 12.4668C7.45261 12.1489 7.28014 11.8269 7.10959 11.5008C6.95446 11.8189 6.78193 12.1369 6.61541 12.4549C6.44863 12.7729 6.28391 13.089 6.12123 13.4029C5.95845 13.7171 5.79178 14.0292 5.62125 14.3391C5.59018 14.4107 5.53584 14.4181 5.45842 14.4181H3.86545C3.80285 14.4181 3.7953 14.371 3.83057 14.3153L6.07471 10.5348L3.88869 6.74228C3.84898 6.68818 3.88315 6.63054 3.94684 6.63494H5.58633C5.65732 6.63098 5.72006 6.65772 5.76075 6.71845C5.90029 7.03651 6.05533 7.35458 6.22586 7.67252C6.39626 7.99061 6.56879 8.30471 6.7433 8.61467C6.91775 8.92475 7.09021 9.23879 7.23749 9.55686C7.39243 9.23093 7.54942 8.91293 7.7084 8.60278C7.86724 8.2927 8.02999 7.98064 8.19676 7.66658C8.36341 7.3526 8.52424 7.04054 8.67931 6.73039C8.69992 6.66236 8.7492 6.62788 8.81884 6.63494H10.3421C10.4003 6.63494 10.4243 6.71436 10.4003 6.75423Z" fill="#FF61F6"/>
<path d="M13.7361 14.5658C12.7106 14.5819 11.6365 14.1596 11.0966 13.2242C10.833 12.7751 10.7012 12.2126 10.7013 11.5367C10.6969 10.9893 10.8333 10.4504 11.0966 9.97436C11.7761 8.75966 13.1451 8.30454 14.4454 8.42402V6.07458C14.4454 6.01905 14.4687 5.9911 14.5152 5.9911H15.9803C16.0203 5.98524 16.0557 6.02157 16.05 6.06265V13.1109C16.05 13.4017 16.0789 13.6914 16.0966 13.9815C16.0994 14.031 16.0708 14.08 16.0268 14.1007C15.3029 14.4104 14.5196 14.5622 13.7361 14.5658ZM14.4454 13.087V9.83124C13.3834 9.5362 12.3523 10.3451 12.3524 11.4651C12.3272 12.623 13.3254 13.423 14.4454 13.087Z" fill="#FF61F6"/>
</g>
</svg>
