<svg width="20" height="20" viewBox="0 0 20 20" fill="none" xmlns="http://www.w3.org/2000/svg">
<path d="M5.66649 18.133C5.93144 18.4772 6.33383 18.6666 6.74858 18.6666H13.2498C13.6646 18.6666 14.0669 18.4623 14.3331 18.1293L18.3669 12.9565C18.6319 12.6123 18.7234 12.1728 18.6319 11.7456L17.1894 5.29888C17.1453 5.09221 17.0549 4.89825 16.9249 4.73161C16.7949 4.56498 16.6289 4.43001 16.4392 4.33688L10.6028 1.47687C10.4168 1.38202 10.211 1.33279 10.0023 1.33326C9.79428 1.33326 9.58755 1.3803 9.4018 1.47564L3.56421 4.34802C3.3748 4.44137 3.209 4.57643 3.07927 4.74305C2.94953 4.90966 2.85924 5.1035 2.81516 5.31002L1.37278 11.758C1.26878 12.1852 1.37278 12.6247 1.63773 12.9689L5.66649 18.1317V18.133Z" fill="#326DE6"/>
<path fill-rule="evenodd" clip-rule="evenodd" d="M15.8701 11.3964C15.9914 11.3988 16.1128 11.4087 16.2329 11.426L16.3047 11.4422L16.3431 11.452C16.3953 11.459 16.4455 11.4768 16.4906 11.5042C16.5356 11.5316 16.5745 11.568 16.6047 11.6112C16.635 11.6543 16.6559 11.7033 16.6663 11.755C16.6767 11.8066 16.6762 11.8599 16.665 11.9114C16.6533 11.9632 16.631 12.0119 16.5993 12.0544C16.5677 12.097 16.5275 12.1324 16.4812 12.1584C16.435 12.1845 16.3839 12.2005 16.3311 12.2055C16.2783 12.2105 16.225 12.2044 16.1747 12.1875H16.1697L16.1661 12.1862L16.1623 12.1837C16.15 12.1811 16.1376 12.1787 16.1252 12.1764L16.0633 12.1639C15.9478 12.1268 15.8345 12.0829 15.7241 12.0327C15.5109 11.9467 15.2899 11.8816 15.0641 11.8384C14.9859 11.8361 14.91 11.8645 14.8524 11.9176C14.7985 11.9073 14.7444 11.8978 14.6902 11.8891C14.3232 13.0391 13.5458 14.014 12.5062 14.6277C12.5248 14.6797 12.5459 14.7305 12.5694 14.78C12.531 14.8477 12.5207 14.9278 12.5409 15.0029C12.6325 15.2134 12.7452 15.4139 12.8764 15.6022C12.9507 15.6987 13.0176 15.8002 13.0794 15.9042L13.1141 15.9748L13.129 16.0057C13.1703 16.0743 13.1889 16.1541 13.1821 16.2338C13.1752 16.3135 13.1434 16.389 13.091 16.4495C13.0387 16.51 12.9685 16.5523 12.8906 16.5705C12.8126 16.5886 12.731 16.5816 12.6573 16.5505C12.6082 16.5303 12.564 16.5 12.5273 16.4616C12.4906 16.4232 12.4624 16.3776 12.4443 16.3277L12.4319 16.3029C12.4199 16.2792 12.4084 16.2553 12.3973 16.2311C12.3539 16.1178 12.3171 16.002 12.2871 15.8844C12.2213 15.6651 12.1342 15.4529 12.0271 15.2505C11.9805 15.1876 11.9112 15.1454 11.8339 15.1329L11.7968 15.0673L11.7534 14.9881C10.6267 15.4135 9.38294 15.4104 8.2583 14.9794L8.17163 15.1342C8.1105 15.1436 8.05353 15.1712 8.00823 15.2134C7.87904 15.4247 7.78024 15.6531 7.71478 15.8919C7.68526 16.0094 7.64886 16.1252 7.60587 16.2385C7.59599 16.2594 7.58571 16.28 7.5749 16.3004L7.55878 16.3339C7.54099 16.3839 7.51279 16.4309 7.4761 16.4694C7.43941 16.5078 7.3951 16.5382 7.34593 16.5584C7.29676 16.5786 7.24389 16.5882 7.19079 16.5866C7.13764 16.5851 7.08545 16.5724 7.03756 16.5493C6.96575 16.5149 6.90649 16.459 6.86808 16.3893C6.82967 16.3196 6.81403 16.2396 6.82337 16.1605C6.82973 16.108 6.84702 16.0574 6.87413 16.0119L6.89146 15.9748L6.92366 15.9104C6.98556 15.8052 7.05242 15.7049 7.12672 15.6084C7.26042 15.4152 7.3743 15.2097 7.46963 14.9942C7.47951 14.921 7.46749 14.8464 7.43496 14.78L7.5043 14.6154C6.46863 14.0063 5.69174 13.0392 5.32033 11.8965L5.15442 11.925C5.09036 11.8796 5.01489 11.853 4.93651 11.8482C4.71082 11.8912 4.48982 11.9558 4.27661 12.0414C4.16518 12.0909 4.05251 12.1342 3.93737 12.1714C3.91685 12.1765 3.89621 12.181 3.87547 12.185L3.83833 12.1937H3.83461L3.83213 12.1962H3.82594C3.76317 12.2163 3.69624 12.2198 3.6317 12.2063C3.56716 12.1929 3.5072 12.1629 3.45769 12.1194C3.40817 12.0759 3.37079 12.0203 3.34918 11.958C3.32758 11.8957 3.32249 11.8289 3.33442 11.764C3.34962 11.686 3.38901 11.6146 3.44701 11.5602C3.50501 11.5058 3.57867 11.4709 3.65756 11.4607L3.66375 11.4595H3.66623L3.67366 11.457C3.70337 11.4496 3.74051 11.4397 3.76775 11.4347C3.88785 11.4186 4.00918 11.4087 4.13051 11.4062C4.3608 11.3902 4.58861 11.353 4.81023 11.2948C4.8759 11.2527 4.93133 11.1964 4.97242 11.1302L5.1309 11.0844C4.95905 9.89199 5.2347 8.67825 5.90471 7.67708L5.78337 7.56938C5.77874 7.49098 5.75214 7.41546 5.70661 7.3515C5.53213 7.2018 5.34345 7.06954 5.14328 6.95653C5.03502 6.90153 4.93003 6.84035 4.8288 6.77329L4.76937 6.72624L4.7508 6.71015L4.74585 6.70643C4.65957 6.64497 4.6012 6.55178 4.58356 6.44733C4.56592 6.34287 4.59044 6.23568 4.65175 6.14929C4.68818 6.10506 4.73451 6.07002 4.78699 6.04701C4.83947 6.02399 4.89663 6.01365 4.95385 6.01681C5.05006 6.02089 5.14246 6.05559 5.21756 6.11586L5.2448 6.13691C5.26461 6.15301 5.2869 6.1691 5.30175 6.18272C5.3909 6.26567 5.47385 6.35481 5.55185 6.44643C5.70661 6.61605 5.87747 6.77081 6.06194 6.90701C6.13128 6.94415 6.21175 6.95158 6.28728 6.92929L6.42347 7.02586C7.2525 6.14661 8.37847 5.60656 9.58308 5.51043L9.59296 5.35072C9.65172 5.29856 9.69425 5.23068 9.71557 5.1551C9.72383 4.92605 9.70973 4.69674 9.67345 4.47043C9.6493 4.35184 9.63191 4.23196 9.62145 4.11138V4.00986V4.00367C9.61607 3.95079 9.62191 3.89737 9.63849 3.84688C9.65513 3.79638 9.68217 3.74995 9.71788 3.7106C9.75364 3.67125 9.79727 3.63986 9.84591 3.61847C9.89456 3.59707 9.9472 3.58616 10.0003 3.58643C10.0533 3.58654 10.1058 3.59771 10.1543 3.61924C10.2027 3.64075 10.2462 3.67215 10.2818 3.71142C10.3175 3.75069 10.3446 3.79696 10.3613 3.84728C10.3781 3.8976 10.3842 3.95087 10.3792 4.00367V4.11138C10.3692 4.23195 10.3523 4.35183 10.3284 4.47043C10.2918 4.69671 10.2773 4.92601 10.2851 5.1551C10.3 5.232 10.3445 5.3 10.4089 5.34453V5.35319L10.4176 5.51291C11.6148 5.62186 12.7328 6.15919 13.5623 7.0271L13.7059 6.92558C13.7835 6.93902 13.8633 6.93044 13.9362 6.90081C14.1207 6.76462 14.2916 6.60862 14.4463 6.43901C14.5243 6.34615 14.6073 6.25824 14.6964 6.17529L14.7596 6.12576L14.7806 6.10843C14.8185 6.07088 14.8639 6.04172 14.9137 6.02285C14.9636 6.00398 15.017 5.99582 15.0702 5.99891C15.1235 6.00199 15.1755 6.01625 15.2228 6.04076C15.2702 6.06527 15.3119 6.09948 15.3452 6.14115C15.3785 6.18283 15.4026 6.23105 15.416 6.28267C15.4295 6.3343 15.4319 6.38817 15.4231 6.44079C15.4144 6.4934 15.3947 6.54358 15.3652 6.58807C15.3358 6.63256 15.2973 6.67036 15.2523 6.69901L15.2226 6.72376C15.2041 6.73862 15.1854 6.75472 15.1694 6.76586C15.0682 6.83297 14.9632 6.89415 14.8549 6.9491C14.6548 7.06261 14.4661 7.19527 14.2916 7.34526C14.2408 7.4042 14.215 7.48064 14.2197 7.55823L14.1579 7.61272L14.0861 7.67835C14.7571 8.67623 15.0394 9.88587 14.8747 11.0769L15.027 11.1215C15.0654 11.1896 15.1223 11.2465 15.1916 11.2849C15.4133 11.3444 15.6411 11.3815 15.8701 11.3964ZM9.12254 6.58262C9.25496 6.55291 9.38993 6.52939 9.52611 6.51329L9.41472 8.49423L9.40478 8.4992C9.40299 8.54421 9.39201 8.58841 9.37254 8.62908C9.35307 8.66976 9.32551 8.70604 9.29159 8.73568C9.25762 8.76532 9.21799 8.7878 9.17511 8.80161C9.13218 8.81542 9.08695 8.82039 9.04205 8.81617C8.98173 8.81103 8.92395 8.78965 8.8749 8.75423L8.87242 8.7555L7.24308 7.60405C7.76187 7.09643 8.41308 6.74234 9.12254 6.58262ZM11.1257 8.74926L12.7452 7.60526C12.1285 7.00278 11.3313 6.61917 10.4757 6.51329L10.5872 8.49175H10.5896C10.5915 8.53693 10.6025 8.58124 10.622 8.62198C10.6416 8.66271 10.6692 8.69905 10.7033 8.72875C10.7374 8.75839 10.7772 8.78081 10.8202 8.79456C10.8633 8.80831 10.9087 8.81316 10.9536 8.80872C11.0139 8.80357 11.0717 8.7822 11.1208 8.74684L11.1257 8.74926ZM13.909 10.7996L11.9924 10.2474L11.9899 10.2399C11.9465 10.2279 11.9059 10.2073 11.8707 10.1791C11.8354 10.1511 11.8063 10.1161 11.7849 10.0765C11.7634 10.0368 11.7503 9.99322 11.7462 9.94832C11.7421 9.90343 11.7471 9.85819 11.7609 9.81526C11.7799 9.75772 11.8141 9.70635 11.8599 9.66672L11.8574 9.6655L13.337 8.34441C13.7901 9.07987 13.9894 9.94157 13.9065 10.7996H13.909ZM11.3573 11.8569L12.1224 13.7017C12.8541 13.2362 13.4095 12.5399 13.701 11.7232L11.7287 11.3902L11.7262 11.3939C11.6564 11.3804 11.5842 11.3904 11.5207 11.4224C11.4438 11.4599 11.3843 11.5255 11.3544 11.6057C11.3244 11.6858 11.3264 11.7744 11.3597 11.8532L11.3573 11.8569ZM10.8806 14.2155C10.1712 14.3764 9.43205 14.3393 8.74242 14.1065L9.70442 12.3732C9.73296 12.3201 9.77658 12.2758 9.82829 12.2448C9.87994 12.2138 9.93905 12.1974 9.99931 12.1973C10.0596 12.1972 10.1188 12.2133 10.1706 12.2441C10.2225 12.2748 10.265 12.319 10.2937 12.3719H10.3012L11.2656 14.1077C11.1392 14.15 11.0107 14.1859 10.8806 14.2155ZM7.8869 13.693L8.64339 11.868L8.63842 11.8606C8.66257 11.8052 8.67106 11.7442 8.66303 11.6842C8.65506 11.6243 8.63079 11.5677 8.59295 11.5205C8.5551 11.4734 8.50507 11.4374 8.44827 11.4166C8.39147 11.3958 8.33006 11.391 8.27072 11.4025L8.26696 11.3988L6.31204 11.7294C6.60635 12.5395 7.15994 13.2298 7.8869 13.693ZM6.65251 8.34441L8.13945 9.67041L8.13823 9.67908C8.18359 9.71872 8.21733 9.76991 8.23588 9.82716C8.25443 9.88442 8.25714 9.94567 8.24368 10.0044C8.23022 10.063 8.2011 10.117 8.15944 10.1604C8.11772 10.2039 8.06509 10.2352 8.00696 10.2511L8.00575 10.2573L6.09908 10.8057C6.00425 9.94659 6.19903 9.08033 6.65251 8.34441ZM10.3049 9.7732H9.69575L9.31563 10.2437L9.45187 10.833L10.0003 11.0967L10.5476 10.8342L10.6838 10.2449L10.3049 9.7732Z" fill="white"/>
</svg>
