<svg width="20" height="20" viewBox="0 0 20 20" fill="none" xmlns="http://www.w3.org/2000/svg">
<path d="M14.7034 6.13468L14.866 5.88395L15.1498 6.05958L15.2754 6.15126C15.5788 6.38984 16.2169 6.99957 16.3545 8.01135C16.5961 7.96717 16.8398 7.94508 17.0836 7.94508C17.6621 7.94508 18.051 8.08204 18.272 8.19582L18.3857 8.25878L18.4594 8.30848L18.6663 8.48078L18.5948 8.70173C18.4837 9.00455 18.31 9.27954 18.0857 9.50804C17.7715 9.83834 17.219 10.2282 16.3426 10.279L16.1497 10.2846H15.9894C15.5886 11.3637 15.0501 12.5799 14.1455 13.6712C13.6088 14.3197 12.9721 14.8748 12.2605 15.3148C11.4073 15.8308 10.4731 16.1926 9.499 16.384C8.80133 16.5221 8.0928 16.5905 7.38321 16.5883C5.81236 16.5883 4.42567 16.2702 3.57308 15.7135C2.81148 15.2176 2.22646 14.4079 1.83321 13.3089C1.48906 12.3046 1.32003 11.2467 1.33378 10.1829C1.332 10.0465 1.37825 9.91404 1.46412 9.80948C1.54999 9.70487 1.6698 9.63518 1.80179 9.61301L1.87546 9.60745H13.294L13.3936 9.59975L13.5551 9.58206C13.8324 9.54449 14.2549 9.46057 14.5518 9.28382C14.1964 8.68404 14.0957 7.98263 14.2614 7.23594C14.3309 6.92448 14.4401 6.62367 14.5864 6.34124L14.7034 6.13468ZM4.46359 7.51319L4.50692 7.52092C4.52672 7.52847 4.54454 7.54057 4.55901 7.55628C4.57347 7.57199 4.5842 7.59088 4.59034 7.6115L4.59684 7.65568V9.1082L4.59034 9.15347C4.58408 9.17422 4.57319 9.19318 4.55853 9.20888C4.54387 9.22459 4.52583 9.23667 4.50584 9.24406L4.46359 9.25069H2.93389C2.90539 9.25028 2.87773 9.24064 2.85495 9.22321C2.83216 9.20572 2.81542 9.1813 2.80714 9.15347L2.79956 9.10932V7.65458L2.80714 7.61039C2.81325 7.58946 2.82408 7.57027 2.83875 7.55436C2.85342 7.53844 2.87153 7.52624 2.89165 7.51872L2.93389 7.51209L4.46359 7.51319ZM6.57288 7.51319L6.61514 7.52092C6.63512 7.52833 6.65317 7.54037 6.6678 7.55608C6.68248 7.5718 6.69339 7.59077 6.69961 7.6115L6.70614 7.65568V9.1082L6.69854 9.15347C6.69227 9.17422 6.68141 9.19318 6.66673 9.20888C6.6521 9.22459 6.63405 9.23667 6.61407 9.24406L6.5718 9.25069H5.0421C5.01363 9.25013 4.98606 9.24044 4.96331 9.22295C4.94055 9.20552 4.92377 9.1812 4.91535 9.15347L4.90776 9.11039V7.65568C4.90753 7.62613 4.91625 7.59722 4.93273 7.5729C4.94922 7.54858 4.97265 7.53005 4.99985 7.51982L5.0421 7.51209L6.57288 7.51319ZM8.71359 7.51319L8.75586 7.52092C8.77564 7.52847 8.79343 7.54057 8.80791 7.55628C8.82238 7.57199 8.83309 7.59088 8.83926 7.6115L8.84686 7.65568V9.1082L8.83926 9.15347C8.83299 9.17422 8.82213 9.19318 8.80745 9.20888C8.79277 9.22459 8.77477 9.23667 8.75473 9.24406L8.71252 9.25069H7.1828C7.15431 9.25028 7.12662 9.24064 7.10384 9.22321C7.08105 9.20572 7.06433 9.1813 7.05607 9.15347L7.04954 9.10932V7.65458L7.05607 7.61039C7.06218 7.58946 7.07299 7.57027 7.08768 7.55436C7.10231 7.53844 7.12046 7.52624 7.14054 7.51872L7.1828 7.51209L8.71359 7.51319ZM10.8283 7.51319L10.8705 7.52092C10.8905 7.52833 10.9086 7.54037 10.9232 7.55608C10.9379 7.5718 10.9488 7.59077 10.955 7.6115L10.9626 7.65568V9.1082C10.9628 9.13777 10.9541 9.16667 10.9377 9.19099C10.9212 9.21531 10.8977 9.23381 10.8705 9.24406L10.8272 9.25069H9.29859C9.27009 9.25028 9.24241 9.24064 9.21962 9.22321C9.19684 9.20572 9.18011 9.1813 9.17185 9.15347L9.16533 9.10932V7.65458L9.17185 7.61039C9.17797 7.58946 9.18878 7.57027 9.20346 7.55436C9.21809 7.53844 9.23624 7.52624 9.25633 7.51872L9.29966 7.51209H10.8294L10.8283 7.51319ZM12.9625 7.51319L13.0048 7.52092C13.0247 7.52833 13.0428 7.54037 13.0574 7.55608C13.0721 7.5718 13.083 7.59077 13.0892 7.6115L13.0958 7.65568V9.1082C13.096 9.13777 13.0873 9.16667 13.0708 9.19099C13.0543 9.21531 13.0309 9.23381 13.0036 9.24406L12.9614 9.25069H11.4317C11.4032 9.25028 11.3755 9.24064 11.3527 9.22321C11.33 9.20572 11.3132 9.1813 11.305 9.15347L11.2985 9.10932V7.65458L11.305 7.61039C11.3111 7.58946 11.3219 7.57027 11.3366 7.55436C11.3512 7.53844 11.3694 7.52624 11.3895 7.51872L11.4328 7.51209H12.9614L12.9625 7.51319ZM6.57073 5.42335L6.61407 5.43107C6.63375 5.43852 6.65149 5.45045 6.66591 5.46595C6.68039 5.48146 6.69115 5.50013 6.69747 5.52054L6.70507 5.56584V7.01834C6.70527 7.0479 6.69655 7.07681 6.68009 7.10113C6.66362 7.12544 6.64017 7.14397 6.61295 7.15421L6.57073 7.16194H5.0421C5.01336 7.16123 4.98558 7.15122 4.9628 7.13334C4.94001 7.11547 4.92339 7.09067 4.91535 7.06253L4.90776 7.01834V5.56584C4.90776 5.53647 4.91658 5.5078 4.93304 5.48371C4.94951 5.45961 4.97283 5.44124 4.99985 5.43107L5.0421 5.42335H6.57073ZM8.7114 5.42335L8.75473 5.43107C8.77441 5.43852 8.79215 5.45045 8.80663 5.46595C8.82111 5.48146 8.83187 5.50013 8.83819 5.52054L8.84573 5.56584V7.01834C8.84599 7.0479 8.83727 7.07681 8.8208 7.10113C8.80429 7.12544 8.78089 7.14397 8.75366 7.15421L8.7114 7.16194H7.1828C7.15405 7.16123 7.12627 7.15122 7.10348 7.13334C7.08069 7.11547 7.06407 7.09067 7.05607 7.06253L7.04954 7.01834V5.56584L7.05607 5.52165C7.06229 5.50092 7.0732 5.48195 7.08788 5.46624C7.10251 5.45052 7.12056 5.43849 7.14054 5.43107L7.1828 5.42335H8.7114ZM10.8272 5.42335C10.8857 5.42335 10.9355 5.46421 10.954 5.52054L10.9615 5.56584V7.01834C10.9618 7.0479 10.9531 7.07681 10.9366 7.10113C10.9201 7.12544 10.8967 7.14397 10.8695 7.15421L10.8261 7.16194H9.29859C9.26984 7.16123 9.24206 7.15122 9.21927 7.13334C9.19648 7.11547 9.17986 7.09067 9.17185 7.06253L9.16533 7.01834V5.56584L9.17185 5.52165C9.17807 5.50092 9.18898 5.48195 9.20367 5.46624C9.2183 5.45052 9.23635 5.43849 9.25633 5.43107L9.29966 5.42335H10.8294H10.8272ZM10.8272 3.3335C10.8857 3.3335 10.9355 3.37437 10.954 3.4307L10.9615 3.47488V4.92849C10.9618 4.95805 10.9531 4.98696 10.9366 5.01128C10.9201 5.03559 10.8967 5.05413 10.8695 5.06436L10.8261 5.07098H9.29859C9.27009 5.0706 9.24241 5.06097 9.21962 5.04349C9.19684 5.02602 9.18011 5.00161 9.17185 4.97379L9.16533 4.9296V3.47488L9.17185 3.4307C9.17807 3.40997 9.18898 3.391 9.20367 3.37528C9.2183 3.35957 9.23635 3.34753 9.25633 3.34012L9.29859 3.3335H10.8283H10.8272Z" fill="#2396ED"/>
</svg>
