<svg width="150" height="178" viewBox="0 0 150 178" fill="none" xmlns="http://www.w3.org/2000/svg">
<g clip-path="url(#clip0_10_2529)">
<path d="M1.33248 49.5242C2.06821 49.5242 2.66498 48.9278 2.66498 48.1918C2.66498 47.456 2.06821 46.8593 1.33248 46.8593C0.596442 46.8593 0 47.456 0 48.1918C0 48.9278 0.596442 49.5242 1.33248 49.5242Z" fill="#4DC3E8" fill-opacity="0.6"/>
<path d="M30.8374 49.3027C31.5735 49.3027 32.1699 48.7063 32.1699 47.9702C32.1699 47.2342 31.5735 46.6377 30.8374 46.6377C30.1017 46.6377 29.5049 47.2342 29.5049 47.9702C29.5049 48.7063 30.1017 49.3027 30.8374 49.3027Z" fill="#4DC3E8" fill-opacity="0.6"/>
<path d="M16.0854 57.9957C16.8215 57.9957 17.4179 57.3989 17.4179 56.6632C17.4179 55.9272 16.8215 55.3307 16.0854 55.3307C15.3497 55.3307 14.753 55.9272 14.753 56.6632C14.753 57.3989 15.3497 57.9957 16.0854 57.9957Z" fill="#4DC3E8" fill-opacity="0.6"/>
<path d="M1.33248 66.7202C2.06821 66.7202 2.66498 66.1234 2.66498 65.3877C2.66498 64.6517 2.06821 64.0552 1.33248 64.0552C0.596442 64.0552 0 64.6517 0 65.3877C0 66.1234 0.596442 66.7202 1.33248 66.7202Z" fill="#4DC3E8" fill-opacity="0.6"/>
<path d="M75.0953 41.7518C76.6197 41.7518 77.8554 40.5157 77.8554 38.9916C77.8554 37.4672 76.6197 36.2315 75.0953 36.2315C73.5711 36.2315 72.3351 37.4672 72.3351 38.9916C72.3351 40.5157 73.5711 41.7518 75.0953 41.7518Z" fill="#4DC3E8" fill-opacity="0.6"/>
<path d="M60.3428 50.4764C61.8672 50.4764 63.1029 49.2404 63.1029 47.7162C63.1029 46.1918 61.8672 44.9561 60.3428 44.9561C58.8187 44.9561 57.5826 46.1918 57.5826 47.7162C57.5826 49.2404 58.8187 50.4764 60.3428 50.4764Z" fill="#4DC3E8" fill-opacity="0.6"/>
<path d="M45.5903 59.201C47.1147 59.201 48.3505 57.965 48.3505 56.4409C48.3505 54.9164 47.1147 53.6807 45.5903 53.6807C44.0659 53.6807 42.8302 54.9164 42.8302 56.4409C42.8302 57.965 44.0659 59.201 45.5903 59.201Z" fill="#4DC3E8" fill-opacity="0.6"/>
<path d="M30.8378 67.9258C32.3623 67.9258 33.598 66.6897 33.598 65.1656C33.598 63.6412 32.3623 62.4055 30.8378 62.4055C29.3134 62.4055 28.0777 63.6412 28.0777 65.1656C28.0777 66.6897 29.3134 67.9258 30.8378 67.9258Z" fill="#4DC3E8" fill-opacity="0.6"/>
<path d="M16.0859 76.6185C17.6103 76.6185 18.846 75.3825 18.846 73.8584C18.846 72.3339 17.6103 71.0982 16.0859 71.0982C14.5614 71.0982 13.3257 72.3339 13.3257 73.8584C13.3257 75.3825 14.5614 76.6185 16.0859 76.6185Z" fill="#4DC3E8" fill-opacity="0.6"/>
<path d="M1.33248 83.9156C2.06821 83.9156 2.66498 83.3191 2.66498 82.5831C2.66498 81.847 2.06821 81.2506 1.33248 81.2506C0.596442 81.2506 0 81.847 0 82.5831C0 83.3191 0.596442 83.9156 1.33248 83.9156Z" fill="#4DC3E8" fill-opacity="0.6"/>
<path d="M75.0961 61.7077C78.1446 61.7077 80.6164 59.2363 80.6164 56.1874C80.6164 53.1386 78.1446 50.6671 75.0961 50.6671C72.0472 50.6671 69.5758 53.1386 69.5758 56.1874C69.5758 59.2363 72.0472 61.7077 75.0961 61.7077Z" fill="#4DC3E8" fill-opacity="0.6"/>
<path d="M60.3436 70.4322C63.3922 70.4322 65.8639 67.9608 65.8639 64.9119C65.8639 61.8631 63.3922 59.3916 60.3436 59.3916C57.2947 59.3916 54.8233 61.8631 54.8233 64.9119C54.8233 67.9608 57.2947 70.4322 60.3436 70.4322Z" fill="#4DC3E8" fill-opacity="0.6"/>
<path d="M45.5906 79.1569C48.6395 79.1569 51.1109 76.6854 51.1109 73.6366C51.1109 70.5877 48.6395 68.1162 45.5906 68.1162C42.5421 68.1162 40.0703 70.5877 40.0703 73.6366C40.0703 76.6854 42.5421 79.1569 45.5906 79.1569Z" fill="#4DC3E8" fill-opacity="0.6"/>
<path d="M30.8377 87.8498C33.8862 87.8498 36.358 85.3784 36.358 82.3295C36.358 79.2807 33.8862 76.8092 30.8377 76.8092C27.7888 76.8092 25.3174 79.2807 25.3174 82.3295C25.3174 85.3784 27.7888 87.8498 30.8377 87.8498Z" fill="#4DC3E8" fill-opacity="0.6"/>
<path d="M16.0859 93.8139C17.6103 93.8139 18.846 92.5782 18.846 91.0537C18.846 89.5293 17.6103 88.2936 16.0859 88.2936C14.5614 88.2936 13.3257 89.5293 13.3257 91.0537C13.3257 92.5782 14.5614 93.8139 16.0859 93.8139Z" fill="#4DC3E8" fill-opacity="0.6"/>
<path d="M1.33248 101.111C2.06821 101.111 2.66498 100.514 2.66498 99.7781C2.66498 99.0423 2.06821 98.4456 1.33248 98.4456C0.596442 98.4456 0 99.0423 0 99.7781C0 100.514 0.596442 101.111 1.33248 101.111Z" fill="#4DC3E8" fill-opacity="0.6"/>
<path d="M75.0961 78.9028C78.1446 78.9028 80.6164 76.4314 80.6164 73.3825C80.6164 70.334 78.1446 67.8622 75.0961 67.8622C72.0472 67.8622 69.5758 70.334 69.5758 73.3825C69.5758 76.4314 72.0472 78.9028 75.0961 78.9028Z" fill="#4DC3E8" fill-opacity="0.6"/>
<path d="M60.3436 87.6276C63.3922 87.6276 65.8639 85.1561 65.8639 82.1073C65.8639 79.0587 63.3922 76.587 60.3436 76.587C57.2947 76.587 54.8233 79.0587 54.8233 82.1073C54.8233 85.1561 57.2947 87.6276 60.3436 87.6276Z" fill="#4DC3E8" fill-opacity="0.6"/>
<path d="M45.5906 96.3203C48.6395 96.3203 51.1109 93.8489 51.1109 90.8C51.1109 87.7515 48.6395 85.2797 45.5906 85.2797C42.5421 85.2797 40.0703 87.7515 40.0703 90.8C40.0703 93.8489 42.5421 96.3203 45.5906 96.3203Z" fill="#4DC3E8" fill-opacity="0.6"/>
<path d="M30.8377 105.045C33.8862 105.045 36.358 102.574 36.358 99.5247C36.358 96.4761 33.8862 94.0043 30.8377 94.0043C27.7888 94.0043 25.3174 96.4761 25.3174 99.5247C25.3174 102.574 27.7888 105.045 30.8377 105.045Z" fill="#4DC3E8" fill-opacity="0.6"/>
<path d="M16.0859 111.009C17.6103 111.009 18.846 109.773 18.846 108.249C18.846 106.724 17.6103 105.489 16.0859 105.489C14.5614 105.489 13.3257 106.724 13.3257 108.249C13.3257 109.773 14.5614 111.009 16.0859 111.009Z" fill="#4DC3E8" fill-opacity="0.6"/>
<path d="M1.33248 118.307C2.06821 118.307 2.66498 117.71 2.66498 116.974C2.66498 116.238 2.06821 115.642 1.33248 115.642C0.596442 115.642 0 116.238 0 116.974C0 117.71 0.596442 118.307 1.33248 118.307Z" fill="#4DC3E8" fill-opacity="0.6"/>
<path d="M75.0953 93.3383C76.6197 93.3383 77.8554 92.1026 77.8554 90.5782C77.8554 89.0537 76.6197 87.818 75.0953 87.818C73.5711 87.818 72.3351 89.0537 72.3351 90.5782C72.3351 92.1026 73.5711 93.3383 75.0953 93.3383Z" fill="#4DC3E8" fill-opacity="0.6"/>
<path d="M60.3428 102.031C61.8672 102.031 63.1029 100.795 63.1029 99.2709C63.1029 97.7465 61.8672 96.5108 60.3428 96.5108C58.8187 96.5108 57.5826 97.7465 57.5826 99.2709C57.5826 100.795 58.8187 102.031 60.3428 102.031Z" fill="#4DC3E8" fill-opacity="0.6"/>
<path d="M45.5903 110.756C47.1147 110.756 48.3505 109.52 48.3505 107.996C48.3505 106.471 47.1147 105.236 45.5903 105.236C44.0659 105.236 42.8302 106.471 42.8302 107.996C42.8302 109.52 44.0659 110.756 45.5903 110.756Z" fill="#4DC3E8" fill-opacity="0.6"/>
<path d="M30.8378 119.48C32.3623 119.48 33.598 118.244 33.598 116.72C33.598 115.196 32.3623 113.96 30.8378 113.96C29.3134 113.96 28.0777 115.196 28.0777 116.72C28.0777 118.244 29.3134 119.48 30.8378 119.48Z" fill="#4DC3E8" fill-opacity="0.6"/>
<path d="M16.0854 126.777C16.8215 126.777 17.4179 126.181 17.4179 125.445C17.4179 124.709 16.8215 124.112 16.0854 124.112C15.3497 124.112 14.753 124.709 14.753 125.445C14.753 126.181 15.3497 126.777 16.0854 126.777Z" fill="#4DC3E8" fill-opacity="0.6"/>
<path d="M1.33248 135.502C2.06821 135.502 2.66498 134.905 2.66498 134.169C2.66498 133.434 2.06821 132.837 1.33248 132.837C0.596442 132.837 0 133.434 0 134.169C0 134.905 0.596442 135.502 1.33248 135.502Z" fill="#4DC3E8" fill-opacity="0.6"/>
<path d="M75.0953 109.074C75.8311 109.074 76.4278 108.477 76.4278 107.741C76.4278 107.006 75.8311 106.409 75.0953 106.409C74.3593 106.409 73.7629 107.006 73.7629 107.741C73.7629 108.477 74.3593 109.074 75.0953 109.074Z" fill="#4DC3E8" fill-opacity="0.6"/>
<path d="M60.3429 117.798C61.0789 117.798 61.6754 117.202 61.6754 116.466C61.6754 115.73 61.0789 115.133 60.3429 115.133C59.6071 115.133 59.0104 115.73 59.0104 116.466C59.0104 117.202 59.6071 117.798 60.3429 117.798Z" fill="#4DC3E8" fill-opacity="0.6"/>
<path d="M45.5909 126.523C46.3269 126.523 46.9234 125.927 46.9234 125.191C46.9234 124.455 46.3269 123.858 45.5909 123.858C44.8549 123.858 44.2584 124.455 44.2584 125.191C44.2584 125.927 44.8549 126.523 45.5909 126.523Z" fill="#4DC3E8" fill-opacity="0.6"/>
<path d="M30.8374 135.248C31.5735 135.248 32.1699 134.651 32.1699 133.915C32.1699 133.18 31.5735 132.583 30.8374 132.583C30.1017 132.583 29.5049 133.18 29.5049 133.915C29.5049 134.651 30.1017 135.248 30.8374 135.248Z" fill="#4DC3E8" fill-opacity="0.6"/>
<path d="M16.0854 143.972C16.8215 143.972 17.4179 143.376 17.4179 142.64C17.4179 141.904 16.8215 141.308 16.0854 141.308C15.3497 141.308 14.753 141.904 14.753 142.64C14.753 143.376 15.3497 143.972 16.0854 143.972Z" fill="#4DC3E8" fill-opacity="0.6"/>
<path d="M75.0953 126.27C75.8311 126.27 76.4278 125.673 76.4278 124.937C76.4278 124.201 75.8311 123.605 75.0953 123.605C74.3593 123.605 73.7629 124.201 73.7629 124.937C73.7629 125.673 74.3593 126.27 75.0953 126.27Z" fill="#4DC3E8" fill-opacity="0.6"/>
<path d="M60.3429 134.995C61.0789 134.995 61.6754 134.398 61.6754 133.662C61.6754 132.926 61.0789 132.33 60.3429 132.33C59.6071 132.33 59.0104 132.926 59.0104 133.662C59.0104 134.398 59.6071 134.995 60.3429 134.995Z" fill="#4DC3E8" fill-opacity="0.6"/>
<path d="M45.5909 143.719C46.3269 143.719 46.9234 143.123 46.9234 142.387C46.9234 141.651 46.3269 141.054 45.5909 141.054C44.8549 141.054 44.2584 141.651 44.2584 142.387C44.2584 143.123 44.8549 143.719 45.5909 143.719Z" fill="#4DC3E8" fill-opacity="0.6"/>
<path d="M30.8374 152.444C31.5735 152.444 32.1699 151.847 32.1699 151.111C32.1699 150.375 31.5735 149.779 30.8374 149.779C30.1017 149.779 29.5049 150.375 29.5049 151.111C29.5049 151.847 30.1017 152.444 30.8374 152.444Z" fill="#4DC3E8" fill-opacity="0.6"/>
<path d="M75.0953 143.465C75.8311 143.465 76.4278 142.869 76.4278 142.133C76.4278 141.397 75.8311 140.8 75.0953 140.8C74.3593 140.8 73.7629 141.397 73.7629 142.133C73.7629 142.869 74.3593 143.465 75.0953 143.465Z" fill="#4DC3E8" fill-opacity="0.6"/>
<path d="M60.3429 152.19C61.0789 152.19 61.6754 151.593 61.6754 150.857C61.6754 150.121 61.0789 149.525 60.3429 149.525C59.6071 149.525 59.0104 150.121 59.0104 150.857C59.0104 151.593 59.6071 152.19 60.3429 152.19Z" fill="#4DC3E8" fill-opacity="0.6"/>
<path d="M45.5909 160.914C46.3269 160.914 46.9234 160.318 46.9234 159.582C46.9234 158.846 46.3269 158.249 45.5909 158.249C44.8549 158.249 44.2584 158.846 44.2584 159.582C44.2584 160.318 44.8549 160.914 45.5909 160.914Z" fill="#4DC3E8" fill-opacity="0.6"/>
<path d="M75.0953 160.66C75.8311 160.66 76.4278 160.064 76.4278 159.328C76.4278 158.592 75.8311 157.995 75.0953 157.995C74.3593 157.995 73.7629 158.592 73.7629 159.328C73.7629 160.064 74.3593 160.66 75.0953 160.66Z" fill="#4DC3E8" fill-opacity="0.6"/>
<path d="M60.3429 169.385C61.0789 169.385 61.6754 168.788 61.6754 168.052C61.6754 167.317 61.0789 166.72 60.3429 166.72C59.6071 166.72 59.0104 167.317 59.0104 168.052C59.0104 168.788 59.6071 169.385 60.3429 169.385Z" fill="#4DC3E8" fill-opacity="0.6"/>
<path d="M75.0953 177.856C75.8311 177.856 76.4278 177.26 76.4278 176.524C76.4278 175.788 75.8311 175.191 75.0953 175.191C74.3593 175.191 73.7629 175.788 73.7629 176.524C73.7629 177.26 74.3593 177.856 75.0953 177.856Z" fill="#4DC3E8" fill-opacity="0.6"/>
<path d="M148.668 49.5242C149.403 49.5242 150 48.9278 150 48.1918C150 47.456 149.403 46.8593 148.668 46.8593C147.932 46.8593 147.335 47.456 147.335 48.1918C147.335 48.9278 147.932 49.5242 148.668 49.5242Z" fill="#4DC3E8" fill-opacity="0.6"/>
<path d="M119.132 49.3027C119.868 49.3027 120.464 48.7063 120.464 47.9702C120.464 47.2342 119.868 46.6377 119.132 46.6377C118.396 46.6377 117.799 47.2342 117.799 47.9702C117.799 48.7063 118.396 49.3027 119.132 49.3027Z" fill="#4DC3E8" fill-opacity="0.6"/>
<path d="M133.916 57.9957C134.651 57.9957 135.248 57.3989 135.248 56.6632C135.248 55.9272 134.651 55.3307 133.916 55.3307C133.18 55.3307 132.583 55.9272 132.583 56.6632C132.583 57.3989 133.18 57.9957 133.916 57.9957Z" fill="#4DC3E8" fill-opacity="0.6"/>
<path d="M148.668 66.7202C149.403 66.7202 150 66.1234 150 65.3877C150 64.6517 149.403 64.0552 148.668 64.0552C147.932 64.0552 147.335 64.6517 147.335 65.3877C147.335 66.1234 147.932 66.7202 148.668 66.7202Z" fill="#4DC3E8" fill-opacity="0.6"/>
<path d="M74.873 41.7518C76.3974 41.7518 77.6332 40.5157 77.6332 38.9916C77.6332 37.4672 76.3974 36.2315 74.873 36.2315C73.3486 36.2315 72.1128 37.4672 72.1128 38.9916C72.1128 40.5157 73.3486 41.7518 74.873 41.7518Z" fill="#4DC3E8" fill-opacity="0.6"/>
<path d="M89.6263 50.4764C91.1504 50.4764 92.3861 49.2404 92.3861 47.7162C92.3861 46.1918 91.1504 44.9561 89.6263 44.9561C88.1019 44.9561 86.8658 46.1918 86.8658 47.7162C86.8658 49.2404 88.1019 50.4764 89.6263 50.4764Z" fill="#4DC3E8" fill-opacity="0.6"/>
<path d="M104.379 59.201C105.904 59.201 107.14 57.965 107.14 56.4409C107.14 54.9164 105.904 53.6807 104.379 53.6807C102.855 53.6807 101.619 54.9164 101.619 56.4409C101.619 57.965 102.855 59.201 104.379 59.201Z" fill="#4DC3E8" fill-opacity="0.6"/>
<path d="M119.131 67.9258C120.656 67.9258 121.892 66.6897 121.892 65.1656C121.892 63.6412 120.656 62.4055 119.131 62.4055C117.607 62.4055 116.371 63.6412 116.371 65.1656C116.371 66.6897 117.607 67.9258 119.131 67.9258Z" fill="#4DC3E8" fill-opacity="0.6"/>
<path d="M133.915 76.6185C135.44 76.6185 136.675 75.3825 136.675 73.8584C136.675 72.3339 135.44 71.0982 133.915 71.0982C132.391 71.0982 131.155 72.3339 131.155 73.8584C131.155 75.3825 132.391 76.6185 133.915 76.6185Z" fill="#4DC3E8" fill-opacity="0.6"/>
<path d="M148.668 83.9156C149.403 83.9156 150 83.3191 150 82.5831C150 81.847 149.403 81.2506 148.668 81.2506C147.932 81.2506 147.335 81.847 147.335 82.5831C147.335 83.3191 147.932 83.9156 148.668 83.9156Z" fill="#4DC3E8" fill-opacity="0.6"/>
<path d="M74.8733 61.7077C77.9222 61.7077 80.3936 59.2363 80.3936 56.1874C80.3936 53.1386 77.9222 50.6671 74.8733 50.6671C71.8245 50.6671 69.353 53.1386 69.353 56.1874C69.353 59.2363 71.8245 61.7077 74.8733 61.7077Z" fill="#4DC3E8" fill-opacity="0.6"/>
<path d="M89.6268 70.4322C92.6756 70.4322 95.1471 67.9608 95.1471 64.9119C95.1471 61.8631 92.6756 59.3916 89.6268 59.3916C86.5779 59.3916 84.1065 61.8631 84.1065 64.9119C84.1065 67.9608 86.5779 70.4322 89.6268 70.4322Z" fill="#4DC3E8" fill-opacity="0.6"/>
<path d="M104.379 79.1569C107.428 79.1569 109.899 76.6854 109.899 73.6366C109.899 70.5877 107.428 68.1162 104.379 68.1162C101.33 68.1162 98.8585 70.5877 98.8585 73.6366C98.8585 76.6854 101.33 79.1569 104.379 79.1569Z" fill="#4DC3E8" fill-opacity="0.6"/>
<path d="M119.131 87.8498C122.18 87.8498 124.651 85.3784 124.651 82.3295C124.651 79.2807 122.18 76.8092 119.131 76.8092C116.082 76.8092 113.611 79.2807 113.611 82.3295C113.611 85.3784 116.082 87.8498 119.131 87.8498Z" fill="#4DC3E8" fill-opacity="0.6"/>
<path d="M133.915 93.8139C135.44 93.8139 136.675 92.5782 136.675 91.0537C136.675 89.5293 135.44 88.2936 133.915 88.2936C132.391 88.2936 131.155 89.5293 131.155 91.0537C131.155 92.5782 132.391 93.8139 133.915 93.8139Z" fill="#4DC3E8" fill-opacity="0.6"/>
<path d="M148.668 101.111C149.403 101.111 150 100.514 150 99.7781C150 99.0423 149.403 98.4456 148.668 98.4456C147.932 98.4456 147.335 99.0423 147.335 99.7781C147.335 100.514 147.932 101.111 148.668 101.111Z" fill="#4DC3E8" fill-opacity="0.6"/>
<path d="M74.8733 78.9028C77.9222 78.9028 80.3936 76.4314 80.3936 73.3825C80.3936 70.334 77.9222 67.8622 74.8733 67.8622C71.8245 67.8622 69.353 70.334 69.353 73.3825C69.353 76.4314 71.8245 78.9028 74.8733 78.9028Z" fill="#4DC3E8" fill-opacity="0.6"/>
<path d="M89.6268 87.6276C92.6756 87.6276 95.1471 85.1561 95.1471 82.1073C95.1471 79.0587 92.6756 76.587 89.6268 76.587C86.5779 76.587 84.1065 79.0587 84.1065 82.1073C84.1065 85.1561 86.5779 87.6276 89.6268 87.6276Z" fill="#4DC3E8" fill-opacity="0.6"/>
<path d="M104.379 96.3203C107.428 96.3203 109.899 93.8489 109.899 90.8C109.899 87.7515 107.428 85.2797 104.379 85.2797C101.33 85.2797 98.8585 87.7515 98.8585 90.8C98.8585 93.8489 101.33 96.3203 104.379 96.3203Z" fill="#4DC3E8" fill-opacity="0.6"/>
<path d="M119.131 105.045C122.18 105.045 124.651 102.574 124.651 99.5247C124.651 96.4761 122.18 94.0043 119.131 94.0043C116.082 94.0043 113.611 96.4761 113.611 99.5247C113.611 102.574 116.082 105.045 119.131 105.045Z" fill="#4DC3E8" fill-opacity="0.6"/>
<path d="M133.915 111.009C135.44 111.009 136.675 109.773 136.675 108.249C136.675 106.724 135.44 105.489 133.915 105.489C132.391 105.489 131.155 106.724 131.155 108.249C131.155 109.773 132.391 111.009 133.915 111.009Z" fill="#4DC3E8" fill-opacity="0.6"/>
<path d="M148.668 118.307C149.403 118.307 150 117.71 150 116.974C150 116.238 149.403 115.642 148.668 115.642C147.932 115.642 147.335 116.238 147.335 116.974C147.335 117.71 147.932 118.307 148.668 118.307Z" fill="#4DC3E8" fill-opacity="0.6"/>
<path d="M74.873 93.3383C76.3974 93.3383 77.6332 92.1026 77.6332 90.5782C77.6332 89.0537 76.3974 87.818 74.873 87.818C73.3486 87.818 72.1128 89.0537 72.1128 90.5782C72.1128 92.1026 73.3486 93.3383 74.873 93.3383Z" fill="#4DC3E8" fill-opacity="0.6"/>
<path d="M89.6263 102.031C91.1504 102.031 92.3861 100.795 92.3861 99.2709C92.3861 97.7465 91.1504 96.5108 89.6263 96.5108C88.1019 96.5108 86.8658 97.7465 86.8658 99.2709C86.8658 100.795 88.1019 102.031 89.6263 102.031Z" fill="#4DC3E8" fill-opacity="0.6"/>
<path d="M104.379 110.756C105.904 110.756 107.14 109.52 107.14 107.996C107.14 106.471 105.904 105.236 104.379 105.236C102.855 105.236 101.619 106.471 101.619 107.996C101.619 109.52 102.855 110.756 104.379 110.756Z" fill="#4DC3E8" fill-opacity="0.6"/>
<path d="M119.131 119.48C120.656 119.48 121.892 118.244 121.892 116.72C121.892 115.196 120.656 113.96 119.131 113.96C117.607 113.96 116.371 115.196 116.371 116.72C116.371 118.244 117.607 119.48 119.131 119.48Z" fill="#4DC3E8" fill-opacity="0.6"/>
<path d="M133.916 126.777C134.651 126.777 135.248 126.181 135.248 125.445C135.248 124.709 134.651 124.112 133.916 124.112C133.18 124.112 132.583 124.709 132.583 125.445C132.583 126.181 133.18 126.777 133.916 126.777Z" fill="#4DC3E8" fill-opacity="0.6"/>
<path d="M148.668 135.502C149.403 135.502 150 134.905 150 134.169C150 133.434 149.403 132.837 148.668 132.837C147.932 132.837 147.335 133.434 147.335 134.169C147.335 134.905 147.932 135.502 148.668 135.502Z" fill="#4DC3E8" fill-opacity="0.6"/>
<path d="M74.8736 109.074C75.6093 109.074 76.2061 108.477 76.2061 107.741C76.2061 107.006 75.6093 106.409 74.8736 106.409C74.1375 106.409 73.5411 107.006 73.5411 107.741C73.5411 108.477 74.1375 109.074 74.8736 109.074Z" fill="#4DC3E8" fill-opacity="0.6"/>
<path d="M89.626 117.798C90.3621 117.798 90.9585 117.202 90.9585 116.466C90.9585 115.73 90.3621 115.133 89.626 115.133C88.89 115.133 88.2936 115.73 88.2936 116.466C88.2936 117.202 88.89 117.798 89.626 117.798Z" fill="#4DC3E8" fill-opacity="0.6"/>
<path d="M104.378 126.523C105.114 126.523 105.711 125.927 105.711 125.191C105.711 124.455 105.114 123.858 104.378 123.858C103.642 123.858 103.046 124.455 103.046 125.191C103.046 125.927 103.642 126.523 104.378 126.523Z" fill="#4DC3E8" fill-opacity="0.6"/>
<path d="M119.132 135.248C119.868 135.248 120.464 134.651 120.464 133.915C120.464 133.18 119.868 132.583 119.132 132.583C118.396 132.583 117.799 133.18 117.799 133.915C117.799 134.651 118.396 135.248 119.132 135.248Z" fill="#4DC3E8" fill-opacity="0.6"/>
<path d="M133.916 143.972C134.651 143.972 135.248 143.376 135.248 142.64C135.248 141.904 134.651 141.308 133.916 141.308C133.18 141.308 132.583 141.904 132.583 142.64C132.583 143.376 133.18 143.972 133.916 143.972Z" fill="#4DC3E8" fill-opacity="0.6"/>
<path d="M74.8736 126.27C75.6093 126.27 76.2061 125.673 76.2061 124.937C76.2061 124.201 75.6093 123.605 74.8736 123.605C74.1375 123.605 73.5411 124.201 73.5411 124.937C73.5411 125.673 74.1375 126.27 74.8736 126.27Z" fill="#4DC3E8" fill-opacity="0.6"/>
<path d="M89.626 134.995C90.3621 134.995 90.9585 134.398 90.9585 133.662C90.9585 132.926 90.3621 132.33 89.626 132.33C88.89 132.33 88.2936 132.926 88.2936 133.662C88.2936 134.398 88.89 134.995 89.626 134.995Z" fill="#4DC3E8" fill-opacity="0.6"/>
<path d="M104.378 143.719C105.114 143.719 105.711 143.123 105.711 142.387C105.711 141.651 105.114 141.054 104.378 141.054C103.642 141.054 103.046 141.651 103.046 142.387C103.046 143.123 103.642 143.719 104.378 143.719Z" fill="#4DC3E8" fill-opacity="0.6"/>
<path d="M119.132 152.444C119.868 152.444 120.464 151.847 120.464 151.111C120.464 150.375 119.868 149.779 119.132 149.779C118.396 149.779 117.799 150.375 117.799 151.111C117.799 151.847 118.396 152.444 119.132 152.444Z" fill="#4DC3E8" fill-opacity="0.6"/>
<path d="M74.8736 143.465C75.6093 143.465 76.2061 142.869 76.2061 142.133C76.2061 141.397 75.6093 140.8 74.8736 140.8C74.1375 140.8 73.5411 141.397 73.5411 142.133C73.5411 142.869 74.1375 143.465 74.8736 143.465Z" fill="#4DC3E8" fill-opacity="0.6"/>
<path d="M89.626 152.19C90.3621 152.19 90.9585 151.593 90.9585 150.857C90.9585 150.121 90.3621 149.525 89.626 149.525C88.89 149.525 88.2936 150.121 88.2936 150.857C88.2936 151.593 88.89 152.19 89.626 152.19Z" fill="#4DC3E8" fill-opacity="0.6"/>
<path d="M104.378 160.914C105.114 160.914 105.711 160.318 105.711 159.582C105.711 158.846 105.114 158.249 104.378 158.249C103.642 158.249 103.046 158.846 103.046 159.582C103.046 160.318 103.642 160.914 104.378 160.914Z" fill="#4DC3E8" fill-opacity="0.6"/>
<path d="M74.8736 160.66C75.6093 160.66 76.2061 160.064 76.2061 159.328C76.2061 158.592 75.6093 157.995 74.8736 157.995C74.1375 157.995 73.5411 158.592 73.5411 159.328C73.5411 160.064 74.1375 160.66 74.8736 160.66Z" fill="#4DC3E8" fill-opacity="0.6"/>
<path d="M89.626 169.385C90.3621 169.385 90.9585 168.788 90.9585 168.052C90.9585 167.317 90.3621 166.72 89.626 166.72C88.89 166.72 88.2936 167.317 88.2936 168.052C88.2936 168.788 88.89 169.385 89.626 169.385Z" fill="#4DC3E8" fill-opacity="0.6"/>
<path d="M74.8736 177.856C75.6093 177.856 76.2061 177.26 76.2061 176.524C76.2061 175.788 75.6093 175.191 74.8736 175.191C74.1375 175.191 73.5411 175.788 73.5411 176.524C73.5411 177.26 74.1375 177.856 74.8736 177.856Z" fill="#4DC3E8" fill-opacity="0.6"/>
<path d="M73.3511 2.66498C74.0869 2.66498 74.6836 2.06852 74.6836 1.33248C74.6836 0.596759 74.0869 0 73.3511 0C72.6151 0 72.0186 0.596759 72.0186 1.33248C72.0186 2.06852 72.6151 2.66498 73.3511 2.66498Z" fill="#4DC3E8" fill-opacity="0.6"/>
<path d="M58.598 11.3896C59.3337 11.3896 59.9302 10.7932 59.9302 10.0571C59.9302 9.32139 59.3337 8.72463 58.598 8.72463C57.862 8.72463 57.2652 9.32139 57.2652 10.0571C57.2652 10.7932 57.862 11.3896 58.598 11.3896Z" fill="#4DC3E8" fill-opacity="0.6"/>
<path d="M43.8447 20.1141C44.5808 20.1141 45.1772 19.5177 45.1772 18.7816C45.1772 18.0459 44.5808 17.4491 43.8447 17.4491C43.109 17.4491 42.5122 18.0459 42.5122 18.7816C42.5122 19.5177 43.109 20.1141 43.8447 20.1141Z" fill="#4DC3E8" fill-opacity="0.6"/>
<path d="M29.0927 28.8389C29.8284 28.8389 30.4252 28.2424 30.4252 27.5064C30.4252 26.7706 29.8284 26.1739 29.0927 26.1739C28.3567 26.1739 27.7602 26.7706 27.7602 27.5064C27.7602 28.2424 28.3567 28.8389 29.0927 28.8389Z" fill="#4DC3E8" fill-opacity="0.6"/>
<path d="M14.3403 37.5636C15.076 37.5636 15.6727 36.9672 15.6727 36.2311C15.6727 35.4954 15.076 34.8986 14.3403 34.8986C13.6042 34.8986 13.0078 35.4954 13.0078 36.2311C13.0078 36.9672 13.6042 37.5636 14.3403 37.5636Z" fill="#4DC3E8" fill-opacity="0.6"/>
<path d="M73.3511 19.8609C74.0869 19.8609 74.6836 19.2642 74.6836 18.5285C74.6836 17.7924 74.0869 17.196 73.3511 17.196C72.6151 17.196 72.0186 17.7924 72.0186 18.5285C72.0186 19.2642 72.6151 19.8609 73.3511 19.8609Z" fill="#4DC3E8" fill-opacity="0.6"/>
<path d="M58.598 28.5856C59.3337 28.5856 59.9302 27.9888 59.9302 27.2531C59.9302 26.517 59.3337 25.9206 58.598 25.9206C57.862 25.9206 57.2652 26.517 57.2652 27.2531C57.2652 27.9888 57.862 28.5856 58.598 28.5856Z" fill="#4DC3E8" fill-opacity="0.6"/>
<path d="M43.8447 37.3103C44.5808 37.3103 45.1772 36.7136 45.1772 35.9778C45.1772 35.2418 44.5808 34.6454 43.8447 34.6454C43.109 34.6454 42.5122 35.2418 42.5122 35.9778C42.5122 36.7136 43.109 37.3103 43.8447 37.3103Z" fill="#4DC3E8" fill-opacity="0.6"/>
<path d="M73.1289 2.66498C73.8649 2.66498 74.4614 2.06852 74.4614 1.33248C74.4614 0.596759 73.8649 0 73.1289 0C72.3931 0 71.7964 0.596759 71.7964 1.33248C71.7964 2.06852 72.3931 2.66498 73.1289 2.66498Z" fill="#4DC3E8" fill-opacity="0.6"/>
<path d="M87.8809 11.3896C88.6169 11.3896 89.2134 10.7932 89.2134 10.0571C89.2134 9.32139 88.6169 8.72463 87.8809 8.72463C87.1451 8.72463 86.5484 9.32139 86.5484 10.0571C86.5484 10.7932 87.1451 11.3896 87.8809 11.3896Z" fill="#4DC3E8" fill-opacity="0.6"/>
<path d="M102.634 20.1141C103.37 20.1141 103.966 19.5177 103.966 18.7816C103.966 18.0459 103.37 17.4491 102.634 17.4491C101.898 17.4491 101.301 18.0459 101.301 18.7816C101.301 19.5177 101.898 20.1141 102.634 20.1141Z" fill="#4DC3E8" fill-opacity="0.6"/>
<path d="M117.386 28.8389C118.122 28.8389 118.719 28.2424 118.719 27.5064C118.719 26.7706 118.122 26.1739 117.386 26.1739C116.65 26.1739 116.054 26.7706 116.054 27.5064C116.054 28.2424 116.65 28.8389 117.386 28.8389Z" fill="#4DC3E8" fill-opacity="0.6"/>
<path d="M132.17 37.5636C132.906 37.5636 133.503 36.9672 133.503 36.2311C133.503 35.4954 132.906 34.8986 132.17 34.8986C131.434 34.8986 130.838 35.4954 130.838 36.2311C130.838 36.9672 131.434 37.5636 132.17 37.5636Z" fill="#4DC3E8" fill-opacity="0.6"/>
<path d="M73.1289 19.8609C73.8649 19.8609 74.4614 19.2642 74.4614 18.5285C74.4614 17.7924 73.8649 17.196 73.1289 17.196C72.3931 17.196 71.7964 17.7924 71.7964 18.5285C71.7964 19.2642 72.3931 19.8609 73.1289 19.8609Z" fill="#4DC3E8" fill-opacity="0.6"/>
<path d="M87.8809 28.5856C88.6169 28.5856 89.2134 27.9888 89.2134 27.2531C89.2134 26.517 88.6169 25.9206 87.8809 25.9206C87.1451 25.9206 86.5484 26.517 86.5484 27.2531C86.5484 27.9888 87.1451 28.5856 87.8809 28.5856Z" fill="#4DC3E8" fill-opacity="0.6"/>
<path d="M102.634 37.3103C103.37 37.3103 103.966 36.7136 103.966 35.9778C103.966 35.2418 103.37 34.6454 102.634 34.6454C101.898 34.6454 101.301 35.2418 101.301 35.9778C101.301 36.7136 101.898 37.3103 102.634 37.3103Z" fill="#4DC3E8" fill-opacity="0.6"/>
</g>
<defs>
<clipPath id="clip0_10_2529">
<rect width="149.28" height="177.002" fill="white" transform="scale(1.00482)"/>
</clipPath>
</defs>
</svg>
