<svg width="20" height="20" viewBox="0 0 20 20" fill="none" xmlns="http://www.w3.org/2000/svg">
<path d="M12.8588 7.18057L14.3655 5.67386L14.4659 5.03944C11.7203 2.54284 7.35576 2.82593 4.88067 5.63012C4.19316 6.40897 3.68312 7.37997 3.41113 8.38266L3.95077 8.30662L6.96412 7.80971L7.19674 7.57178C8.53717 6.09968 10.8036 5.90163 12.3513 7.15416L12.8588 7.18057Z" fill="#EA4335"/>
<path d="M16.514 8.33818C16.1677 7.06282 15.4566 5.91632 14.4681 5.03931L12.3534 7.15396C13.2463 7.88359 13.755 8.98278 13.7332 10.1356V10.511C14.7726 10.511 15.6153 11.3536 15.6153 12.393C15.6153 13.4324 14.7726 14.254 13.7332 14.254H9.96386L9.59375 14.6557V16.9131L9.96386 17.2673H13.7332C16.4368 17.2884 18.6456 15.1349 18.6666 12.4313C18.6794 10.7926 17.8714 9.25632 16.514 8.33818Z" fill="#4285F4"/>
<path d="M6.1994 17.2675H9.96347V14.2541H6.1994C5.93121 14.2541 5.67148 14.1965 5.42759 14.085L4.89358 14.2488L3.37631 15.7556L3.24414 16.2683C4.09503 16.9109 5.1332 17.2721 6.1994 17.2675Z" fill="#34A853"/>
<path d="M6.19921 7.49271C3.49556 7.50882 1.31698 9.71368 1.3331 12.4173C1.3421 13.927 2.04721 15.3482 3.24396 16.2686L5.42741 14.0852C4.4801 13.6572 4.05916 12.5424 4.48714 11.5952C4.91506 10.6479 6.02994 10.2269 6.97709 10.6549C7.39452 10.8435 7.72878 11.1778 7.91737 11.5952L10.1008 9.41177C9.17177 8.19728 7.72824 7.48722 6.19921 7.49271Z" fill="#FBBC05"/>
</svg>
